<?xml version="1.0" encoding="utf-8"?>
<!-- Generator: Adobe Illustrator 18.0.0, SVG Export Plug-In . SVG Version: 6.00 Build 0)  -->
<!DOCTYPE svg PUBLIC "-//W3C//DTD SVG 1.1//EN" "http://www.w3.org/Graphics/SVG/1.1/DTD/svg11.dtd">
<svg version="1.1" id="AR_x5F_layer" xmlns="http://www.w3.org/2000/svg" xmlns:xlink="http://www.w3.org/1999/xlink" x="0px"
	 y="0px" width="9451.45px" height="623.52px" viewBox="0 0 9451.45 623.52" enable-background="new 0 0 9451.45 623.52"
	 xml:space="preserve">
<polyline opacity="0.01" fill="none" stroke="#000000" stroke-width="8.5039" stroke-linecap="round" stroke-linejoin="round" stroke-miterlimit="10" points="
	6103.03,322.43 6191.56,322.43 6278.45,320.08 6368.5,289.93 6455.39,272.03 6551.76,273.92 6628.94,279.1 6719.22,245.18 
	6810.85,206.56 6894.58,197.97 6983.05,191.49 7073.1,132.79 7159.99,127.9 "/>
<polyline opacity="0.01" fill="none" stroke="#000000" stroke-width="8.5039" stroke-linecap="round" stroke-linejoin="round" stroke-miterlimit="10" points="
	6103.03,281.3 6189.4,285.23 6277.37,289.16 6363.88,327.63 6454.78,341.62 6542.75,334.19 6628.94,356.05 6720.16,354.3 
	6802.27,387.08 6893.17,389.71 6981.14,392.77 7070.58,420.74 7159.99,422.49 "/>
<polyline opacity="0.01" fill="none" stroke="#000000" stroke-width="8.5039" stroke-miterlimit="10" points="6143.03,611.63 
	6233.14,599.39 6324.77,583.84 6408.5,550.87 6498.55,527.32 6582.28,521.67 6670.94,498.12 6762.38,458.08 6850.85,398.26 
	6937.74,363.88 7027.79,329.02 7113.1,179.71 7199.99,138.26 "/>
<polyline opacity="0.01" fill="none" stroke="#000000" stroke-width="8.5039" stroke-linecap="round" stroke-linejoin="round" stroke-miterlimit="10" points="
	6183.03,588.4 6271.63,576.34 6360.25,564.38 6442.51,577.17 6542.15,579.36 6621.33,568.64 6708.94,563.67 6800.55,552.89 
	6897.52,567.34 6969.43,554.78 7063.61,543.41 7149.45,538.79 7238.86,524.57 "/>
</svg>
