<?xml version="1.0" encoding="utf-8"?>
<!-- Generator: Adobe Illustrator 18.0.0, SVG Export Plug-In . SVG Version: 6.00 Build 0)  -->
<!DOCTYPE svg PUBLIC "-//W3C//DTD SVG 1.1//EN" "http://www.w3.org/Graphics/SVG/1.1/DTD/svg11.dtd">
<svg version="1.1" id="Layer_9" xmlns="http://www.w3.org/2000/svg" xmlns:xlink="http://www.w3.org/1999/xlink" x="0px" y="0px"
	 width="9451.45px" height="623.52px" viewBox="0 0 9451.45 623.52" enable-background="new 0 0 9451.45 623.52"
	 xml:space="preserve">
<line fill="none" stroke="#FFFFFF" stroke-width="0.5" stroke-miterlimit="10" stroke-dasharray="1,2" x1="6015.3" y1="550.24" x2="6284.37" y2="550.24"/>
<g>
	<g>
		<g>
			<g>
				<g>
					<polyline opacity="0.01" points="6275.85,546.92 6262.33,536.67 6248.82,538.72 6235.3,538.72 6221.79,534.62 6208.27,536.67 
						6194.76,542.82 6181.24,544.87 6167.73,537.7 6154.21,536.67 6140.7,536.67 6127.18,536.67 6113.67,541.8 6100.15,537.7 
						6086.64,537.7 6073.12,537.7 6059.6,536.67 6046.09,533.59 6032.58,532.57 6019.06,540.77 6019.06,550 6275.85,550 
						6275.85,546.92 					"/>
				</g>
			</g>
		</g>
	</g>
	<g>
		<g>
			<g opacity="0.01">
				<rect id="SVGID_1_" x="6272.2" y="548" width="2.24" height="1.79"/>
			</g>
			<g>
				<g>
					<defs>
						<rect id="SVGID_2_" x="6272.2" y="548" width="2.24" height="1.79"/>
					</defs>
					<clipPath id="SVGID_3_">
						<use xlink:href="#SVGID_2_"  overflow="visible"/>
					</clipPath>
					<g clip-path="url(#SVGID_3_)">
						<g>
							<g>
								<g>
									<defs>
										<rect id="SVGID_4_" x="6272.11" y="547.72" width="2.37" height="2.37"/>
									</defs>
									<clipPath id="SVGID_5_">
										<use xlink:href="#SVGID_4_"  overflow="visible"/>
									</clipPath>
								</g>
							</g>
							<g>
								<g>
									<g>
										<g>
											<rect id="SVGID_7_" x="6258.57" y="549.11" width="2.46" height="0.67"/>
										</g>
										<g>
											<g>
												<defs>
													<rect id="SVGID_6_" x="6258.57" y="549.11" width="2.46" height="0.67"/>
												</defs>
												<clipPath id="SVGID_8_">
													<use xlink:href="#SVGID_6_"  overflow="visible"/>
												</clipPath>
												<g clip-path="url(#SVGID_8_)">
													<g>
														<g>
															<rect id="SVGID_9_" x="6258.57" y="549.07" width="2.71" height="1.02"/>
														</g>
														<g>
															<g>
																<defs>
																	<rect id="SVGID_10_" x="6258.57" y="549.07" width="2.71" height="1.02"/>
																</defs>
																<clipPath id="SVGID_12_">
																	<use xlink:href="#SVGID_10_"  overflow="visible"/>
																</clipPath>
																<g clip-path="url(#SVGID_12_)" enable-background="new    ">
																	<g>
																		<rect id="SVGID_11_" x="6258.57" y="549.11" width="2.46" height="0.67"/>
																	</g>
																	<g>
																		<g>
																			<defs>
																				<rect id="SVGID_14_" x="6258.57" y="549.11" width="2.46" height="0.67"/>
																			</defs>
																			<clipPath id="SVGID_16_">
																				<use xlink:href="#SVGID_14_"  overflow="visible"/>
																			</clipPath>
																			<rect x="6258.57" y="549.11" clip-path="url(#SVGID_16_)" width="2.46" height="0.67"/>
																		</g>
																	</g>
																</g>
															</g>
														</g>
														<g>
															<defs>
																<rect id="SVGID_18_" x="6258.57" y="549.11" width="2.46" height="0.67"/>
															</defs>
															<clipPath id="SVGID_20_">
																<use xlink:href="#SVGID_18_"  overflow="visible"/>
															</clipPath>
															<g clip-path="url(#SVGID_20_)">
																<g>
																	<g>
																		<rect id="SVGID_13_" x="6245.17" y="521.63" width="2.23" height="28.15"/>
																	</g>
																	<g>
																		<g>
																			<defs>
																				<rect id="SVGID_22_" x="6245.17" y="521.63" width="2.23" height="28.15"/>
																			</defs>
																			<clipPath id="SVGID_23_">
																				<use xlink:href="#SVGID_22_"  overflow="visible"/>
																			</clipPath>
																			<g clip-path="url(#SVGID_23_)">
																				<g>
																					<g>
																						<rect id="SVGID_15_" x="6245.03" y="521.32" width="2.71" height="28.77"/>
																					</g>
																					<g>
																						<g>
																							<defs>
																								<rect id="SVGID_24_" x="6245.03" y="521.32" width="2.71" height="28.77"/>
																							</defs>
																							<clipPath id="SVGID_25_">
																								<use xlink:href="#SVGID_24_"  overflow="visible"/>
																							</clipPath>
																							<g clip-path="url(#SVGID_25_)" enable-background="new    ">
																								<g>
																									<rect id="SVGID_17_" x="6245.17" y="521.63" width="2.23" height="28.15"/>
																								</g>
																								<g>
																									<g>
																										<defs>
																											<rect id="SVGID_26_" x="6245.17" y="521.63" width="2.23" height="28.15"/>
																										</defs>
																										<clipPath id="SVGID_27_">
																											<use xlink:href="#SVGID_26_"  overflow="visible"/>
																										</clipPath>
																										<rect x="6245.17" y="521.63" clip-path="url(#SVGID_27_)" width="2.23" height="28.15"/>
																									</g>
																								</g>
																							</g>
																						</g>
																					</g>
																					<g>
																						<defs>
																							<rect id="SVGID_28_" x="6245.17" y="521.63" width="2.23" height="28.15"/>
																						</defs>
																						<clipPath id="SVGID_29_">
																							<use xlink:href="#SVGID_28_"  overflow="visible"/>
																						</clipPath>
																						<g clip-path="url(#SVGID_29_)">
																							<g>
																								<g>
																									<rect id="SVGID_19_" x="6231.54" y="539.73" width="2.46" height="10.05"/>
																								</g>
																								<g>
																									<g>
																										<defs>
																											<rect id="SVGID_30_" x="6231.54" y="539.73" width="2.46" height="10.05"/>
																										</defs>
																										<clipPath id="SVGID_31_">
																											<use xlink:href="#SVGID_30_"  overflow="visible"/>
																										</clipPath>
																										<g clip-path="url(#SVGID_31_)">
																											<g>
																												<rect id="SVGID_21_" x="6007.07" y="400.81" width="285.01" height="201.41"/>
																											</g>
																										</g>
																									</g>
																								</g>
																							</g>
																						</g>
																					</g>
																				</g>
																			</g>
																		</g>
																	</g>
																</g>
															</g>
														</g>
														<rect x="6191.11" y="544.87" fill="none" width="2.23" height="4.91"/>
														<rect x="6177.33" y="548.74" fill="none" width="2.71" height="1.35"/>
														<rect x="6164.08" y="546.66" fill="none" width="2.24" height="3.13"/>
														<rect x="6150.45" y="546.88" fill="none" width="2.46" height="2.9"/>
														<rect x="6137.05" y="547.1" fill="none" width="2.23" height="2.68"/>
														<rect x="6123.42" y="547.33" fill="none" width="2.46" height="2.46"/>
														<rect x="6110.02" y="547.33" fill="none" width="2.23" height="2.46"/>
														<rect x="6096.39" y="548" fill="none" width="2.46" height="1.79"/>
														<rect x="6082.98" y="548.44" fill="none" width="2.23" height="1.34"/>
														<rect x="6069.36" y="548.44" fill="none" width="2.46" height="1.34"/>
														<rect x="6055.95" y="548.44" fill="none" width="2.23" height="1.34"/>
														<rect x="6042.33" y="548.44" fill="none" width="2.46" height="1.34"/>
														<rect x="6028.92" y="548.67" fill="none" width="2.23" height="1.12"/>
														<rect x="6015.3" y="548.89" fill="none" width="2.46" height="0.89"/>
														<rect x="6274.65" y="543.75" fill="none" width="2.46" height="6.03"/>
														<rect x="6261.25" y="547.1" fill="none" width="2.23" height="2.68"/>
														<rect x="6247.62" y="459.53" fill="none" width="2.46" height="90.25"/>
														<rect x="6234.22" y="516.95" fill="none" width="2.23" height="32.84"/>
														<rect x="6220.59" y="530.8" fill="none" width="2.46" height="18.99"/>
														<rect x="6207.19" y="531.24" fill="none" width="2.23" height="18.54"/>
														<rect x="6193.56" y="533.7" fill="none" width="2.46" height="16.08"/>
														<rect x="6180.16" y="546.88" fill="none" width="2.23" height="2.9"/>
														<rect x="6166.53" y="539.51" fill="none" width="2.46" height="10.28"/>
														<rect x="6153.13" y="539.95" fill="none" width="2.23" height="9.83"/>
														<rect x="6139.5" y="540.4" fill="none" width="2.46" height="9.38"/>
														<rect x="6126.1" y="541.29" fill="none" width="2.24" height="8.49"/>
														<rect x="6112.47" y="541.96" fill="none" width="2.46" height="7.82"/>
														<rect x="6099.07" y="543.53" fill="none" width="2.23" height="6.25"/>
														<rect x="6085.44" y="493.49" fill="none" width="2.46" height="56.29"/>
														<rect x="6072.04" y="544.87" fill="none" width="2.23" height="4.91"/>
														<rect x="6058.41" y="545.09" fill="none" width="2.46" height="4.69"/>
														<rect x="6045.01" y="545.09" fill="none" width="2.23" height="4.69"/>
														<rect x="6031.38" y="545.32" fill="none" width="2.46" height="4.47"/>
														<rect x="6017.98" y="546.88" fill="none" width="2.24" height="2.9"/>
														<rect x="6277.33" y="523.2" fill="none" width="2.23" height="26.58"/>
														<rect x="6263.71" y="549.34" fill="none" width="2.45" height="0.45"/>
														<rect x="6250.3" y="526.55" fill="none" width="2.23" height="23.23"/>
														<rect x="6236.68" y="524.54" fill="none" width="2.46" height="25.24"/>
														<rect x="6223.27" y="524.54" fill="none" width="2.23" height="25.24"/>
														<rect x="6209.65" y="522.98" fill="none" width="2.46" height="26.81"/>
														<rect x="6196.24" y="524.09" fill="none" width="2.23" height="25.69"/>
														<rect x="6182.62" y="529.01" fill="none" width="2.46" height="20.77"/>
														<rect x="6169.21" y="527" fill="none" width="2.23" height="22.79"/>
														<rect x="6155.59" y="528.78" fill="none" width="2.46" height="21"/>
														<rect x="6142.18" y="532.36" fill="none" width="2.23" height="17.42"/>
														<rect x="6128.56" y="524.54" fill="none" width="2.46" height="25.24"/>
														<rect x="6115.15" y="522.53" fill="none" width="2.23" height="27.25"/>
														<rect x="6101.53" y="532.81" fill="none" width="2.46" height="16.98"/>
														<rect x="6088.12" y="531.46" fill="none" width="2.23" height="18.32"/>
														<rect x="6074.5" y="544.42" fill="none" width="2.46" height="5.36"/>
														<rect x="6061.09" y="522.98" fill="none" width="2.24" height="26.81"/>
														<rect x="6047.46" y="546.66" fill="none" width="2.46" height="3.13"/>
														<rect x="6034.06" y="522.53" fill="none" width="2.23" height="27.25"/>
														<rect x="6020.44" y="522.3" fill="none" width="2.46" height="27.48"/>
														<rect x="6266.39" y="549.11" fill="none" width="2.23" height="0.67"/>
														<rect x="6252.76" y="516.27" fill="none" width="2.23" height="33.51"/>
														<rect x="6198.7" y="548.44" fill="none" width="2.23" height="1.34"/>
														<rect x="6185.3" y="549.56" fill="none" width="2.24" height="0.22"/>
														<rect x="6171.67" y="549.56" fill="none" width="2.23" height="0.22"/>
														<rect x="6158.27" y="549.56" fill="none" width="2.23" height="0.22"/>
														<rect x="6144.64" y="549.56" fill="none" width="2.23" height="0.22"/>
														<rect x="6104.21" y="549.34" fill="none" width="2.23" height="0.45"/>
														<rect x="6090.58" y="549.56" fill="none" width="2.23" height="0.22"/>
														<rect x="6077.18" y="549.56" fill="none" width="2.23" height="0.22"/>
													</g>
												</g>
											</g>
										</g>
									</g>
								</g>
							</g>
						</g>
					</g>
				</g>
			</g>
		</g>
	</g>
</g>
<rect x="6007.07" y="400.81" fill="none" width="285.01" height="201.41"/>
</svg>
