<?xml version="1.0" encoding="utf-8"?>
<!-- Generator: Adobe Illustrator 18.0.0, SVG Export Plug-In . SVG Version: 6.00 Build 0)  -->
<!DOCTYPE svg PUBLIC "-//W3C//DTD SVG 1.1//EN" "http://www.w3.org/Graphics/SVG/1.1/DTD/svg11.dtd">
<svg version="1.1" xmlns="http://www.w3.org/2000/svg" xmlns:xlink="http://www.w3.org/1999/xlink" x="0px" y="0px"
	 viewBox="0 0 9451.4 623.5" enable-background="new 0 0 9451.4 623.5" xml:space="preserve">
<g id="background" display="none">
	<rect x="0" y="0" display="inline" fill="#B7D1D8" width="9451.4" height="623.5"/>
</g>
<g id="Baseline">
	<g>
		<g>
			<path fill="#FFFFFF" d="M1027.6,427.9c0,0-1.8,0.1-5.3,0.3c-3.4,0.2-8.5,0.4-14.9,0.4c-6.4,0-14.2-0.1-23.2-0.2
				c-8.9-0.1-19-0.1-30,0.4c-5.5,0.2-11.2,0.4-17.2,0.7c-1.5,0.1-3,0.1-4.5,0.1c-1.6,0-3.1,0-4.6-0.1c-3.1-0.1-6.2-0.3-9.3-0.5
				c-1.6-0.1-3.1-0.1-4.7-0.1c-1.6,0-3.2,0.1-4.8,0.1c-3.2,0.1-6.5,0.1-9.8,0.2c-6.6,0.1-13.4,0.2-20.3,0.3c-3.4,0-6.9,0.1-10.4,0.1
				c-3.5,0.1-7,0.2-10.5,0.3c-7.1,0.2-14.3,0.3-21.6,0c-1.8-0.1-3.7-0.2-5.5-0.3c-1.8-0.1-3.6-0.2-5.4-0.2c-3.6-0.1-7.2,0-10.9,0.1
				c-3.6,0.1-7.3,0.2-11,0.2c-3.6,0-7.2,0.2-10.9,0.5c-3.7,0.2-7.4,0.5-11.1,0.5c-0.9,0-1.9,0-2.8,0l-2.7,0c-1.8,0-3.6,0-5.4,0.1
				c-3.6,0.1-7.3,0.3-11,0.4c-3.8,0-7.3-0.2-10.9-0.2c-7.2-0.1-14.3,0-21.4,0.2c-7.1,0.1-14.1,0.2-21,0.1
				c-6.9-0.1-13.7-0.2-20.3-0.4c-6.6-0.2-13.1-0.2-19.5-0.7c-3.2-0.3-6.2-0.6-9.3-0.8c-3-0.2-6-0.3-9-0.3c-2.9,0-5.8,0-8.7,0.1
				c-2.9,0.1-5.7,0.3-8.4,0.4c-1.4,0.1-2.7,0.1-4.1,0.2c-1.4,0-2.7,0-4.1,0c-2.7-0.1-5.3-0.3-7.8-0.6c-2.5-0.3-5-0.8-7.3-1.1
				c-2.2-0.3-4.5-0.4-6.7-0.3c-2.2,0-4.4,0.2-6.5,0.2c-2.1,0-4.1,0.1-6,0.1c-3.9,0.1-7.4,0.2-10.6,0.2c-6.4,0.2-11.5,0.2-14.9,0.3
				c-3.4,0.1-5.3,0.1-5.3,0.1s1.8-0.1,5.3-0.3c3.4-0.2,8.5-0.6,14.9-0.9c3.2-0.2,6.8-0.4,10.6-0.6c1.9-0.1,3.9-0.2,6-0.3
				c2.1-0.1,4.2-0.3,6.5-0.4c2.3-0.1,4.6-0.2,7.1,0.1c2.4,0.3,4.7,0.7,7.2,0.9c2.5,0.2,5,0.3,7.6,0.3c1.3,0,2.6,0,3.9-0.1
				c1.3-0.1,2.7-0.2,4.1-0.3c2.7-0.2,5.5-0.4,8.4-0.6c2.9-0.2,5.8-0.3,8.8-0.4c3,0,6,0,9.1,0.2c3.1,0.1,6.3,0.4,9.3,0.6
				c6.2,0.4,12.7,0.2,19.3,0.3c6.6,0.1,13.4,0.2,20.2,0.2c6.9,0,13.8-0.1,20.9-0.3c3.5-0.1,7.1-0.3,10.7-0.3c3.6-0.1,7.2-0.1,10.8,0
				c3.6,0,7.3,0.2,10.8,0.1c3.6,0,7.2-0.3,10.9-0.4c1.8-0.1,3.7-0.1,5.6-0.1l2.8,0c0.9,0,1.8,0,2.7,0c3.6,0,7.2-0.3,10.9-0.5
				c3.6-0.2,7.4-0.4,11.1-0.4c3.6,0,7.3-0.1,11-0.2c3.7-0.1,7.3-0.1,11,0c1.8,0,3.7,0.1,5.5,0.2c1.8,0.1,3.6,0.2,5.4,0.3
				c14.3,0.6,28.5-0.1,42.3,0c6.9,0,13.7,0,20.3,0c3.3,0,6.6,0,9.8,0c1.6,0,3.2,0,4.8,0c1.6,0,3.3,0.1,4.8,0.2
				c3.1,0.2,6.3,0.4,9.3,0.6c1.5,0.1,3,0.1,4.5,0.2c1.5,0,3,0,4.5,0c5.9-0.1,11.7-0.2,17.2-0.3c11-0.3,21.2,0.1,30.1,0.5
				c8.9,0.4,16.7,0.8,23.1,1c6.4,0.2,11.5,0.3,14.9,0.2C1025.7,428,1027.6,427.9,1027.6,427.9z"/>
		</g>
		<g>
			<path fill="#FFFFFF" d="M1324.3,427.9c0,0-1.3,0.1-3.7,0.3c-2.4,0.2-5.9,0.4-10.4,0.6c-9,0.4-21.8,0.7-37.2,0.7
				c-7.7,0-16,0-24.8,0.1c-4.4,0.1-8.9,0.1-13.5,0.3c-2.3,0.1-4.6,0.2-7.1,0.2c-2.4,0-4.8-0.2-7.2-0.3c-2.4-0.1-4.8-0.3-7.2-0.3
				c-1.2,0-2.4,0-3.6,0c-1.2,0-2.5,0-3.7,0.1c-4.9,0.1-10,0.1-15,0.2c-5.1,0.1-10.1,0.1-15.3,0.2c-5.1,0-10.2,0-15.4,0.1
				c-10.3,0-20.5,0-30.6,0c-10.1,0-20-0.1-29.6-0.1c-9.6,0-18.9-0.1-27.7-0.1c-8.8,0-17.1,0-24.8,0c-7.6,0.1-14.7,0.4-21,0.3
				c-3.1,0-6.1-0.1-8.8-0.4c-2.7-0.2-5.1-0.5-7.4-0.5c-2.2,0-4.2,0-6,0.1c-1.7,0-3.3,0-4.4-0.2c-2.4-0.3-3.7-0.3-3.7-0.3
				s1.3,0,3.7,0.1c1.2,0.1,2.7,0,4.4-0.1c1.7-0.1,3.7-0.3,6-0.4c2.3-0.2,4.8,0,7.5,0.1c2.7,0.1,5.6,0.1,8.7,0
				c6.2-0.2,13.2-0.8,21-1.2c7.7-0.3,16-0.5,24.8-0.8c8.8-0.3,18.1-0.4,27.7-0.5c9.6-0.1,19.6-0.3,29.6-0.3
				c10.1,0,20.3-0.1,30.6-0.1c5.1,0,10.3,0,15.4,0c5.1,0,10.2-0.1,15.2-0.1c5,0,10.1,0,15-0.1c1.2,0,2.5,0,3.7,0
				c1.2,0,2.5,0,3.8,0.1c2.5,0.1,4.9,0.3,7.3,0.4c2.4,0.2,4.7,0.3,7,0.4c2.2,0.1,4.6,0,6.9,0c4.6,0,9.2,0,13.6,0
				c8.8,0.1,17.2,0.4,24.8,0.6c7.7,0.3,14.7,0.5,21,0.7c6.2,0.2,11.7,0.3,16.2,0.3c4.5,0,8,0.1,10.4,0
				C1323,427.9,1324.3,427.9,1324.3,427.9z"/>
		</g>
		<g>
			<path fill="#FFFFFF" d="M1553.6,427.9c0,0-1.3,0.1-3.7,0.3c-2.4,0.1-5.9,0.4-10.4,0.5c-4.5,0.1-9.9,0.2-16.2,0.2
				c-6.2,0-13.3-0.1-21-0.1c-7.7,0-15.9,0.2-24.8,0.6c-4.4,0.2-8.9,0.4-13.6,0.5c-2.3,0.1-4.6,0.2-7.1,0.2c-2.4,0-4.8-0.2-7.2-0.3
				c-2.4-0.1-4.8-0.3-7.2-0.3c-2.4-0.1-4.8,0-7.3,0.1c-4.9,0.1-10,0.1-15,0.2c-5,0.1-10.1,0.1-15.2,0.2c-5.1,0-10.2,0.1-15.3,0.2
				c-10.2,0.2-20.6,0.4-30.8-0.2c-9.9-0.7-19.8-0.2-29.5-0.2c-4.7,0-9.4,0.4-14.1,0.5c-2.3,0.1-4.6,0.2-6.9,0.2
				c-1.1,0-2.3,0-3.4-0.1c-1.1,0-2.2-0.1-3.3-0.1c-4.3,0-8.6,0.2-12.8,0.3c-2.1,0-4.2,0-6.2-0.1c-2-0.1-4-0.1-5.9-0.2
				c-7.7-0.2-14.7-0.4-20.9-0.2c-6.3,0.1-11.7,0.2-16.2,0.2c-2.3,0-4.3-0.3-6-0.5c-1.7-0.2-3.2-0.4-4.4-0.6
				c-2.4-0.3-3.7-0.3-3.7-0.3s1.3-0.1,3.7,0.1c1.2,0.1,2.7,0.2,4.4,0.3c1.7,0.1,3.7,0.2,5.9,0.2c4.5-0.3,9.9-0.7,16.2-1.1
				c6.2-0.4,13.3-0.6,21-0.6c1.9,0,3.9,0,5.9,0c2,0,4-0.1,6-0.1c4.1-0.2,8.4-0.5,12.9-0.6c1.1,0,2.3,0,3.4,0c1.1,0,2.2,0,3.3,0
				c2.2-0.1,4.5-0.2,6.8-0.3c4.6-0.3,9.3-0.7,14.2-0.8c9.5-0.1,19.5-0.9,29.8-0.2c10,0.6,20.2,0.3,30.4,0.1
				c5.1-0.1,10.3-0.1,15.4-0.1c5.1,0,10.2,0,15.2-0.1c5,0,10.1,0,15,0c2.5,0,4.9,0,7.4,0.1c2.5,0.1,4.9,0.3,7.3,0.4
				c2.4,0.2,4.7,0.3,7.1,0.4c2.2,0.1,4.6,0,6.9,0c4.6-0.1,9.2-0.1,13.6-0.2c4.4-0.1,8.7-0.2,12.9-0.1c4.2,0,8.2,0.2,12,0.3
				c7.7,0.3,14.7,0.7,21,1c6.2,0.3,11.7,0.5,16.2,0.6c4.5,0.1,8,0.2,10.4,0.2C1552.3,427.9,1553.6,427.9,1553.6,427.9z"/>
		</g>
		<g>
			<path fill="#FFFFFF" d="M1850.3,427.9c0,0-1.3,0.1-3.7,0.3c-2.4,0.2-5.9,0.4-10.4,0.6c-9,0.4-21.8,0.7-37.2,0.7
				c-7.7,0-16,0-24.8,0.1c-4.4,0.1-8.9,0.1-13.5,0.3c-2.3,0.1-4.6,0.2-7.1,0.2c-2.4,0-4.8-0.2-7.2-0.3c-2.4-0.1-4.8-0.3-7.2-0.3
				c-1.2,0-2.4,0-3.6,0c-1.2,0-2.5,0-3.7,0.1c-4.9,0.1-10,0.1-15,0.2c-5.1,0.1-10.1,0.1-15.3,0.2c-5.1,0-10.2,0-15.4,0.1
				c-10.3,0-20.5,0-30.6,0c-10.1,0-20-0.1-29.6-0.1c-9.6,0-18.9-0.1-27.7-0.1c-8.8,0-17.1,0-24.8,0c-7.6,0.1-14.7,0.4-21,0.3
				c-3.1,0-6.1-0.1-8.8-0.4c-2.7-0.2-5.1-0.5-7.4-0.5c-2.2,0-4.2,0-6,0.1c-1.7,0-3.3,0-4.4-0.2c-2.4-0.3-3.7-0.3-3.7-0.3
				s1.3,0,3.7,0.1c1.2,0.1,2.7,0,4.4-0.1c1.7-0.1,3.7-0.3,6-0.4c2.3-0.2,4.8,0,7.5,0.1c2.7,0.1,5.6,0.1,8.7,0
				c6.2-0.2,13.2-0.8,21-1.2c7.7-0.3,16-0.5,24.8-0.8c8.8-0.3,18.1-0.4,27.7-0.5c9.6-0.1,19.6-0.3,29.6-0.3
				c10.1,0,20.3-0.1,30.6-0.1c5.1,0,10.3,0,15.4,0c5.1,0,10.2-0.1,15.2-0.1c5,0,10.1,0,15-0.1c1.2,0,2.5,0,3.7,0
				c1.2,0,2.5,0,3.8,0.1c2.5,0.1,4.9,0.3,7.3,0.4c2.4,0.2,4.7,0.3,7,0.4c2.2,0.1,4.6,0,6.9,0c4.6,0,9.2,0,13.6,0
				c8.8,0.1,17.2,0.4,24.8,0.6c7.7,0.3,14.7,0.5,21,0.7c6.2,0.2,11.7,0.3,16.2,0.3c4.5,0,8,0.1,10.4,0
				C1849,427.9,1850.3,427.9,1850.3,427.9z"/>
		</g>
		<g>
			<path fill="#FFFFFF" d="M2097.7,427.9c0,0-1.3,0.1-3.7,0.3c-2.4,0.1-5.9,0.4-10.4,0.5c-4.5,0.1-9.9,0.2-16.2,0.2
				c-6.2,0-13.3-0.1-21-0.1c-7.7,0-15.9,0.2-24.8,0.6c-4.4,0.2-8.9,0.4-13.6,0.5c-2.3,0.1-4.6,0.2-7.1,0.2c-2.4,0-4.8-0.2-7.2-0.3
				c-2.4-0.1-4.8-0.3-7.2-0.3c-2.4-0.1-4.8,0-7.3,0.1c-4.9,0.1-10,0.1-15,0.2c-5,0.1-10.1,0.1-15.2,0.2c-5.1,0-10.2,0.1-15.3,0.2
				c-10.2,0.2-20.6,0.4-30.8-0.2c-9.9-0.7-19.8-0.2-29.5-0.2c-4.7,0-9.4,0.4-14.1,0.5c-2.3,0.1-4.6,0.2-6.9,0.2
				c-1.1,0-2.3,0-3.4-0.1c-1.1,0-2.2-0.1-3.3-0.1c-4.3,0-8.6,0.2-12.8,0.3c-2.1,0-4.2,0-6.2-0.1c-2-0.1-4-0.1-5.9-0.2
				c-7.7-0.2-14.7-0.4-20.9-0.2c-6.3,0.1-11.7,0.2-16.2,0.2c-2.3,0-4.3-0.3-6-0.5c-1.7-0.2-3.2-0.4-4.4-0.6
				c-2.4-0.3-3.7-0.3-3.7-0.3s1.3-0.1,3.7,0.1c1.2,0.1,2.7,0.2,4.4,0.3c1.7,0.1,3.7,0.2,5.9,0.2c4.5-0.3,9.9-0.7,16.2-1.1
				c6.2-0.4,13.3-0.6,21-0.6c1.9,0,3.9,0,5.9,0c2,0,4-0.1,6-0.1c4.1-0.2,8.4-0.5,12.9-0.6c1.1,0,2.3,0,3.4,0c1.1,0,2.2,0,3.3,0
				c2.2-0.1,4.5-0.2,6.8-0.3c4.6-0.3,9.3-0.7,14.2-0.8c9.5-0.1,19.5-0.9,29.8-0.2c10,0.6,20.2,0.3,30.4,0.1
				c5.1-0.1,10.3-0.1,15.4-0.1c5.1,0,10.2,0,15.2-0.1c5,0,10.1,0,15,0c2.5,0,4.9,0,7.4,0.1c2.5,0.1,4.9,0.3,7.3,0.4
				c2.4,0.2,4.7,0.3,7.1,0.4c2.2,0.1,4.6,0,6.9,0c4.6-0.1,9.2-0.1,13.6-0.2c4.4-0.1,8.7-0.2,12.9-0.1c4.2,0,8.2,0.2,12,0.3
				c7.7,0.3,14.7,0.7,21,1c6.2,0.3,11.7,0.5,16.2,0.6c4.5,0.1,8,0.2,10.4,0.2C2096.4,427.9,2097.7,427.9,2097.7,427.9z"/>
		</g>
	</g>
	<g>
		<path fill="#FFFFFF" d="M4538.8,432.7c0,0,7.3,0,21-0.1c13.7,0,33.7,0.1,59.2,0.3c25.5,0.1,56.5,0.3,92-1
			c17.7-0.7,36.7-1.6,56.6-2c19.9-0.4,41-0.3,62.8,0.4c21.9,0.6,44.6,1.2,68.1,0.7c5.9-0.1,11.8-0.4,17.8-0.6c3-0.2,6-0.3,9-0.5
			c1.5-0.1,3-0.2,4.5-0.3c1.5-0.1,3-0.2,4.6-0.3c12.3-0.6,24.8,0.1,37.3,0.7c6.2,0.3,12.5,0.5,18.8,0.5c6.3,0,12.7,0,19.2-0.1
			c12.9,0,25.9-0.1,39-0.1c26.3-0.1,53.2-0.1,80.6-0.2c27.3,0,55.1-0.1,83.3-0.1c14.2,0,28.4,1.2,42.4,1.2
			c14.2-0.1,28.5-0.3,42.9-0.4c28.7-0.3,57.6-0.5,86.7-0.8c3.6,0,7.3-0.1,10.9-0.1c3.7,0,7.3,0,10.9,0c7.3,0,14.6,0,21.8,0
			c14.6,0,29.2,0,43.7,0c58.3,0,116.7,0.1,174.1,0.1c14.4,0,28.7,0,42.9,0c7.1-0.1,14.2-0.1,21.3-0.2l5.3-0.1c1.8,0,3.6,0,5.4,0.1
			c3.6,0.2,7.2,0.5,10.7,0.9l2.6,0.3l1.3,0.2l0.6,0.1l0.7,0.1c0.9,0.1,1.8,0.2,2.6,0.2c0.8,0,1.6,0.1,2.5,0.1
			c3.4,0.1,6.8-0.1,10.2-0.4c6.9-0.6,13.9-1.5,21.1-1.6c0.9,0,1.8,0,2.7,0l0.7,0l0.7,0l1.3,0.1l5.2,0.4c3.5,0.3,6.8,0.5,10.2,0.5
			c1.7,0,3.3-0.1,4.9-0.2l1.2-0.1l1.3-0.1c1-0.1,1.9-0.1,2.9-0.1c3.7,0,7.1,0.5,10.3,0.5c13.7,0,27.2-0.1,40.7-0.1
			c6.7,0,13.4,0,20-0.1c6.6,0,13.3,0,19.8,0.1c3.3,0,6.6,0,9.8,0c3.2,0,6.6,0,9.9,0.2c6.6,0.3,13,0.9,19.3,1.1c1.6,0,3.2,0,4.7,0
			c1.5,0,3.1-0.2,4.6-0.4c3.1-0.3,6.2-0.9,9.6-1.1c1.6-0.1,3.2-0.2,4.7-0.3l2.4-0.1l2.4-0.1c3.2-0.1,6.3-0.2,9.5-0.1
			c3.2,0.1,6.4,0.2,9.6,0.6c0.8,0.1,1.6,0.2,2.3,0.3c0.4,0.1,0.7,0.1,1,0.1c0.4,0,0.7,0.1,1.1,0.1c1.5,0.1,2.9,0.1,4.5,0.1
			c1.5,0,3.1-0.1,4.7-0.1c1.5,0,3.1,0,4.6,0c3.1,0,6.1,0,9.2,0c12.2,0,24.2,0.1,36,0.1c11.8,0,23.4,0.1,34.8,0.1c2.9,0,5.7,0,8.5,0
			c2.8,0,5.6-0.1,8.5,0c5.7,0.1,11.2,0.8,16.5,0.7c10.8-0.2,21.5-1.3,32.1-1.1c5.4,0.2,10.5,1,15.5,1.1c1.2,0,2.5,0,3.7-0.1l1.9-0.2
			c0.6-0.1,1.3-0.1,1.9-0.2c2.6-0.2,5.1-0.2,7.6-0.2c5,0,9.9,0.3,14.8,0.3c4.9,0,9.6,0.1,14.4,0.1c9.4,0.1,18.6,0.1,27.5,0.2
			c8.9,0.1,17.5,0.3,25.7-0.1c8.3-0.3,16.3-0.7,24.1,0c1.9,0.1,3.9,0.5,5.7,0.6c1.8,0.1,3.7,0.1,5.5,0c3.7-0.1,7.3,0,10.8,0
			c7,0,13.8,0.1,20.2,0.1c51,0.4,80.2,0.6,80.2,0.6s-29.2,0.2-80.2,0.6c-6.4,0-13.1,0.1-20.2,0.1c-3.5,0-7.1,0-10.8,0.2
			c-1.8,0.1-3.7,0.1-5.7,0.1c-2-0.1-3.8-0.4-5.7-0.5c-7.6-0.5-15.6-0.1-23.9,0.3c-8.3,0.5-17,0.4-25.8,0.4c-8.9,0-18.1,0.1-27.5,0.1
			c-4.7,0-9.5,0.1-14.4,0.1c-4.9,0-9.8-0.2-14.7-0.2c-2.5,0-5,0.1-7.4,0.3c-0.6,0-1.2,0.1-1.9,0.2l-1.9,0.2c-1.3,0.1-2.6,0.1-4,0.1
			c-5.2-0.1-10.4-0.9-15.5-1c-10.3-0.2-21,1.1-32,1.3c-5.6,0.1-11.2-0.5-16.6-0.5c-2.8,0-5.5,0-8.4,0.1c-2.8,0.1-5.7,0-8.5,0.1
			c-11.4,0-23,0.1-34.8,0.1c-11.8,0-23.8,0.1-36,0.1c-3,0-6.1,0-9.2,0c-1.5,0-3.1,0-4.6,0c-1.5,0-3,0.1-4.6,0.1
			c-1.6,0-3.2,0.1-4.8,0c-0.4,0-0.8-0.1-1.2-0.1c-0.4,0-0.9-0.1-1.3-0.1c-0.8-0.1-1.5-0.2-2.3-0.3c-3-0.4-6-0.5-9.1-0.6
			c-3.1,0-6.2,0.1-9.3,0.2l-2.3,0.1l-2.4,0.2c-1.6,0.1-3.2,0.2-4.7,0.3c-3,0.2-6.2,0.8-9.4,1.2c-1.6,0.2-3.3,0.3-5,0.4
			c-1.7,0.1-3.3,0.1-4.9,0c-6.6-0.1-13-0.7-19.4-0.9c-3.2-0.2-6.4-0.1-9.7-0.1c-3.3,0-6.6,0-9.8,0c-26.3,0-53.2,0.3-80.6,0.4
			c-3.7,0-7.1-0.5-10.3-0.5c-0.8,0-1.5,0-2.3,0.1l-1.3,0.1c-0.5,0.1-0.9,0.1-1.4,0.1c-1.8,0.2-3.6,0.2-5.4,0.2
			c-3.5,0-7.1-0.2-10.5-0.4l-5.2-0.4l-1.3-0.1l-0.6,0l-0.6,0c-0.8,0-1.7-0.1-2.5,0c-6.7,0-13.6,1-20.6,1.6
			c-3.5,0.3-7.1,0.5-10.8,0.5c-1.8,0-3.8-0.1-5.5-0.3l-0.7-0.1l-0.7-0.1l-1.3-0.1l-2.6-0.3c-3.5-0.4-6.9-0.7-10.4-0.8
			c-1.7-0.1-3.4-0.1-5.1-0.1l-5.3,0.1c-7.1,0.1-14.2,0.2-21.3,0.3c-14.2,0-28.5,0-42.9,0.1c-57.4,0-115.8,0.1-174.1,0.1
			c-14.6,0-29.2,0-43.7,0c-7.3,0-14.6,0-21.8,0c-3.6,0-7.3,0-10.9,0c-3.6,0-7.3,0.1-10.9,0.1c-29.1,0.2-58,0.5-86.7,0.7
			c-14.4,0.1-28.7,0.2-42.9,0.3c-14.4,0-28.5-1.3-42.4-1.3c-28.1-0.1-55.9-0.1-83.3-0.1c-27.3-0.1-54.2-0.1-80.6-0.2
			c-13.2,0-26.2-0.1-39-0.1c-6.4,0-12.8,0-19.2-0.1c-6.4,0-12.7-0.3-19-0.6c-12.5-0.7-24.8-1.5-36.8-1c-1.5,0-3,0.2-4.5,0.2
			c-1.5,0.1-3,0.2-4.5,0.3c-3,0.2-6,0.3-9,0.5c-6,0.2-12,0.4-17.9,0.5c-23.6,0.4-46.5-0.4-68.3-1.2c-43.7-1.7-83.7-0.7-119.3,0.4
			c-35.6,0.9-66.6,0.3-92.1-0.1c-25.5-0.5-45.6-0.8-59.2-1.1C4546.1,432.8,4538.8,432.7,4538.8,432.7z"/>
	</g>
	<g>
		<path fill="#FFFFFF" d="M6862.9,433.9c0,0,33.4-0.2,91.8-0.6c3.7,0,7.4,0,11.2-0.1c3.9,0,7.8,0.2,11.8,0.2c2,0,4-0.1,6.1-0.2
			c2-0.2,4.1-0.4,6.1-0.8c4.1-0.7,8.4-1.5,12.9-1.7c9-0.2,18,1.3,27.5,2.3c4.7,0.5,9.5,0.9,14.4,0.8c1.2,0,2.4-0.1,3.6-0.2
			c1.2-0.1,2.4-0.2,3.7-0.3c2.5-0.2,5.1-0.4,7.6-0.4c40.7-0.4,86.6-0.5,136.7-0.6c25-0.1,51.1-0.2,78.1-0.2
			c13.5,0,27.2-0.1,41.2-0.1c14-0.1,28.1,0.2,42.3-0.6c1.8-0.1,3.6-0.2,5.3-0.4c1.8-0.2,3.6-0.3,5.4-0.5l1.4-0.1l1.4-0.1
			c1-0.1,1.9,0,2.8,0c1.9,0.1,3.7,0.2,5.6,0.3c7.4,0.7,14.6,2.1,21.5,1.9c7.1-0.2,14.2-2,22.1-2.4c3.9-0.2,7.8,0.3,11.5,0.8
			c1.9,0.2,3.7,0.4,5.5,0.6c1.8,0.1,3.5,0.1,5.5,0.1c15.1,0,30.3-0.1,45.7-0.1l2.9,0c1,0,1.9,0,2.8-0.1c1.9-0.1,3.8-0.2,5.7-0.3
			c3.8-0.2,7.8-0.5,11.8-0.4c2,0,4,0.1,6,0.3c2,0.2,4.1,0.5,6,0.8c1.9,0.4,3.8,0.7,5.7,1l0.6,0.1l0.7,0.1l1.5,0.2
			c0.9,0.1,1.8,0.2,2.8,0.2c7.5,0.4,15.2-0.6,23-1.6c3.9-0.5,7.9-1,11.9-1.3c4-0.3,8-0.6,12.1-0.6c4.1,0,8.2,0.1,12.3,0.6
			c2.1,0.3,4,0.5,5.9,0.7c1.9,0.2,3.9,0.2,5.8,0.3c3.9,0.1,7.9,0,11.9-0.1c4.1-0.1,8.1,0,12.1,0c16.2,0.2,32.3,0.8,48.4,0.2
			c4-0.1,8.1-0.4,12.1-0.7c4-0.3,8.1-0.8,12.2-1.2c2.1-0.2,4.1-0.3,6.3-0.4l1.6-0.1c0.5,0,1,0,1.6,0c1.2,0,2.2,0.1,3.3,0.2
			c4.3,0.4,8.4,1.2,12.3,1.6c0.5,0,1,0.1,1.5,0.1l0.7,0.1l0.8,0c1,0.1,2,0.1,3,0.1c2,0.1,4,0.1,6.1,0.1c4.1,0,8.1-0.2,12.3-0.3
			c4.1-0.1,8.2-0.4,12.6-0.3c4.3,0.1,8.5,0.5,12.6,1c4.1,0.5,8.2,1,12.3,1.5l3,0.3l3.1,0.3c2,0.2,4.1,0.3,6.1,0.4
			c8.2,0.4,16.4,0.4,24.6,0c2.1-0.1,4.1-0.2,6.2-0.4c1-0.1,2.1-0.1,3-0.2c0.6,0,0.9-0.1,1.4-0.2c0.5-0.1,0.9-0.2,1.4-0.3
			c1.9-0.4,3.9-0.9,6-1.4c1.1-0.2,2.2-0.5,3.3-0.6c1.1-0.2,2.4-0.2,3.4-0.3c4.3-0.2,8.5-0.1,12.7-0.1c4.2,0.1,8.3,0.1,12.5,0.1
			c16.7,0,33.4,0,50.1,0l25,0l12.5,0c4.2,0,8.3,0,12.6,0.1c8.4,0.1,16.7,0.5,24.9,0.3c8.3-0.3,16.6-0.6,24.9-0.9
			c4.2-0.2,8.3-0.3,12.5-0.5c4.1-0.1,8.3-0.3,12.5-0.4c2.1,0,4.2,0,6.5,0.2c2.2,0.2,4.3,0.5,6.4,0.8c2,0.3,4,0.6,5.9,0.8
			c0.9,0.1,2,0.1,3,0.1c1,0,2,0,3,0.1c8.1,0.1,16.4-0.5,24.8-0.5c8.2,0,16.5,0,24.7,0c8.2,0,16.4,0,24.6,0c4.1,0,8.2,0,12.3,0l6.1,0
			c2.1,0,4.1,0.1,6.2,0.2c8.2,0.4,16.2,1,24.2,0.8c7.9-0.2,15.9-1.3,24.1-1.7c2.1-0.1,4.1-0.1,6.2,0c2.1,0.1,4.1,0.2,6.1,0.3
			c4,0.2,8,0.3,12,0.4c8,0.2,15.9,0.2,23.9,0.2c15.9,0,31.7,0.1,47.3,0.1c7.8,0,15.6,0,23.4,0c7.8,0,15.5,0.1,23.1,0
			c15.3-0.2,30.5-0.6,45.5-1.5c3.7-0.3,7.6-0.7,11.6-0.4c1,0.1,2,0.2,3,0.4c1,0.2,2,0.4,2.8,0.6c1.7,0.4,3.5,0.6,5.2,0.8
			c3.6,0.3,7.2,0.3,10.9,0.3c3.7,0,7.4,0.1,11.1,0.2c7.4,0.2,14.7,0.4,21.9,0.4c1.8,0,3.6,0,5.4,0l1.3,0l0.6,0l0.7,0
			c0.9,0,1.8,0,2.7-0.1c3.5-0.2,7-0.6,10.5-1.1c7-1,14.1-2.3,21.4-2.8l2.7-0.1l2.7,0c1.7,0,3.5,0.1,5.3,0.1
			c3.5,0.1,7.1,0.4,10.6,0.7c7,0.6,13.9,1.5,20.7,2.5c1.7,0.2,3.4,0.5,5,0.7c1.6,0.1,3.3,0.2,4.9,0.2c3.3,0,6.7-0.1,10.1-0.2
			c3.4-0.1,6.8,0,10.1,0c3.3,0,6.7,0,10,0c6.6,0,13.2,0,19.7,0.1c13,0,25.8,0.1,38.3,0.1c12.5,0,24.8,0.4,36.7,0.2
			c6-0.1,11.8-0.3,17.7-0.8c5.8-0.4,11.7-0.9,17.5-0.6c0.7,0,1.5,0.1,2.2,0.2c0.8,0.1,1.5,0.3,2.2,0.4c1.4,0.3,2.8,0.7,4.1,0.9
			c2.6,0.4,5.3,0.3,8.1,0.2c1.4,0,2.8-0.1,4.2-0.1c1.4,0,2.8,0,4.1,0c2.7,0,5.5,0,8.2,0c10.8,0.1,21.3,0.1,31.5,0.2
			c20.3,0.1,39.4,0.2,57,0.3c8.8,0,17.2,0.1,25.3,0c8.1-0.1,15.8-0.4,23.1-0.5c3.6-0.1,7.2-0.2,10.7-0.2c3.5,0,6.8,0.1,10.1,0.2
			c6.5,0.3,12.6,0.7,18.3,0.9c5.7,0.2,10.9,0.2,15.7,0.2c4.8,0,9.2,0.1,13.1,0.1c15.6,0.1,24,0.2,24,0.2s-8.3,0.1-24,0.2
			c-3.9,0-8.3,0.1-13.1,0.1c-4.8,0-10.1,0.1-15.7,0c-11.4-0.3-24.4-1.2-38.9-0.4c-7.3,0.3-15,0.6-23.1,0.8
			c-8.1,0.2-16.5,0.2-25.3,0.3c-17.6,0.1-36.6,0.2-57,0.3c-10.2,0.1-20.7,0.1-31.5,0.2c-2.7,0-5.4,0-8.2,0c-1.4,0-2.7,0-4.1,0
			c-1.4,0-2.7,0-4.1,0.1c-2.8,0.1-5.7,0.3-8.6-0.1c-1.5-0.2-2.9-0.6-4.2-0.8c-1.4-0.3-2.6-0.5-4-0.5c-5.6-0.3-11.3,0.3-17.1,0.7
			c-5.8,0.5-11.8,0.8-17.8,0.9c-12,0.3-24.3,0.1-36.8,0.1c-12.5,0-25.3,0.1-38.3,0.1c-6.5,0-13.1,0-19.7,0.1c-3.3,0-6.6,0-10,0
			c-3.4,0-6.7,0-10,0.1c-3.3,0.1-6.8,0.3-10.2,0.3c-1.7,0-3.5-0.1-5.3-0.2c-1.8-0.2-3.5-0.4-5.2-0.7c-6.8-0.9-13.6-1.8-20.5-2.4
			c-3.4-0.3-6.9-0.5-10.4-0.6c-1.7-0.1-3.4-0.1-5.2-0.1l-2.5,0l-2.6,0.1c-6.9,0.5-13.8,1.8-21,2.9c-3.6,0.5-7.2,1-10.9,1.2
			c-1,0.1-1.9,0.1-2.8,0.1l-0.7,0l-0.7,0l-1.4,0c-1.8,0-3.6,0-5.5,0c-7.3,0-14.6-0.2-22-0.3c-3.7-0.1-7.3-0.1-11-0.1
			c-3.7,0-7.5,0-11.3-0.3c-1.9-0.2-3.9-0.4-5.8-0.8c-1-0.2-1.9-0.4-2.7-0.6c-0.8-0.2-1.7-0.2-2.5-0.3c-3.5-0.2-7.1,0.2-10.9,0.4
			c-15.1,0.9-30.3,1.5-45.8,1.7c-7.7,0.1-15.4,0.1-23.2,0.1c-7.8,0-15.5,0-23.4,0c-15.6,0-31.4,0-47.3,0.1c-7.9,0-15.9,0.1-24-0.1
			c-4-0.1-8-0.2-12.1-0.4c-2-0.1-4.1-0.2-6-0.3c-1.9,0-3.9,0-5.8,0.1c-7.9,0.3-15.9,1.5-24.2,1.7c-8.3,0.2-16.5-0.4-24.5-0.7
			c-2-0.1-4-0.2-6-0.2l-6.1,0c-4.1,0-8.2,0-12.3,0c-8.2,0-16.4,0-24.6,0c-8.2,0-16.4,0-24.7,0c-8.1,0-16.4,0.6-24.8,0.5
			c-1,0-2.1,0-3.2-0.1c-1.1,0-2.1-0.1-3.2-0.1c-2.2-0.2-4.3-0.5-6.4-0.8c-2-0.3-4-0.6-5.9-0.8c-1.9-0.1-3.9-0.1-6-0.1
			c-4.1,0-8.2,0.2-12.4,0.4c-4.1,0.2-8.3,0.3-12.5,0.5c-8.3,0.3-16.6,0.6-25,0.9c-8.5,0.2-16.8-0.1-25.1-0.3c-4.1-0.1-8.3,0-12.5,0
			l-12.5,0l-25,0c-16.7,0-33.4,0-50.1,0c-8.4,0.1-16.8-0.4-24.9-0.1c-1.1,0-1.9,0.1-2.8,0.2c-0.9,0.1-1.9,0.3-2.8,0.5
			c-1.9,0.4-4,1-6.1,1.4c-0.5,0.1-1.1,0.2-1.7,0.3c-0.6,0.1-1.2,0.2-1.7,0.2c-1.2,0.1-2.1,0.2-3.2,0.2c-2.1,0.1-4.2,0.3-6.3,0.4
			c-8.4,0.4-16.8,0.5-25.2,0c-2.1-0.1-4.2-0.2-6.3-0.4l-3.1-0.3l-3.1-0.3c-4.1-0.5-8.2-1-12.3-1.6c-4.1-0.5-8.1-0.9-12.1-1
			c-3.9-0.1-8.1,0.1-12.2,0.3c-8.3,0.3-16.6,0.6-25.1-0.2c-4.3-0.5-8.3-1.3-12.1-1.6c-3.7-0.4-7.8,0-11.8,0.3
			c-4,0.4-8.1,0.8-12.2,1.2c-4.1,0.3-8.2,0.6-12.3,0.7c-16.4,0.6-32.7-0.1-48.7-0.4c-4,0-8-0.1-12,0c-4,0-8,0.1-12.1,0.1
			c-2,0-4.1-0.1-6.2-0.3c-2.1-0.2-4.2-0.5-6-0.7c-3.8-0.5-7.7-0.6-11.6-0.6c-3.9,0-7.8,0.2-11.7,0.6c-3.9,0.3-7.8,0.8-11.7,1.3
			c-7.8,1-15.8,2-24,1.5c-1-0.1-2.1-0.2-3.1-0.2l-1.5-0.2l-0.7-0.1l-0.8-0.1c-2-0.3-3.9-0.7-5.8-1.1c-1.9-0.3-3.7-0.6-5.5-0.8
			c-1.9-0.2-3.7-0.3-5.6-0.3c-3.8,0-7.6,0.2-11.4,0.4c-1.9,0.1-3.9,0.2-5.8,0.3c-1,0-2,0.1-2.9,0.1l-2.9,0
			c-15.4,0-30.6-0.1-45.7-0.1c-1.8,0-3.9,0-5.8-0.2c-1.9-0.2-3.8-0.4-5.7-0.6c-3.7-0.5-7.3-0.9-10.8-0.8c-7,0.3-14.4,2.1-22.1,2.3
			c-7.8,0.1-15-1.3-22.1-2c-1.8-0.2-3.5-0.3-5.3-0.4c-0.9,0-1.8,0-2.6,0l-1.3,0l-1.4,0.1l-0.6,0l-0.7,0.1l-1.4,0.1l-2.7,0.2
			c-1.8,0.1-3.6,0.3-5.4,0.4c-14.5,0.8-28.6,0.4-42.5,0.4c-13.9,0-27.7-0.1-41.2-0.1c-27-0.1-53.1-0.2-78.1-0.2
			c-50.1-0.2-96-0.3-136.6-0.5c-2.5,0.1-5,0.2-7.5,0.4c-1.2,0.1-2.5,0.2-3.7,0.3c-1.3,0.1-2.5,0.1-3.8,0.1c-5,0-9.9-0.4-14.6-1
			c-4.7-0.5-9.4-1.2-13.9-1.7c-2.3-0.3-4.5-0.5-6.7-0.6c-2.2-0.2-4.4-0.3-6.6-0.2c-4.3,0.1-8.5,0.9-12.7,1.6
			c-2.1,0.3-4.2,0.6-6.3,0.7c-2.1,0.1-4.1,0.2-6.2,0.2c-4.1,0-8-0.2-11.8-0.3c-3.8,0-7.6,0-11.2-0.1
			C6896.3,434.1,6862.9,433.9,6862.9,433.9z"/>
	</g>
</g>
<g id="_x30_6L_x5F_Print_x5F_Back">
	<circle opacity="0.7" fill="#FFFFFF" cx="2424.1" cy="580.3" r="0.9"/>
	<circle fill="none" stroke="#C9507E" stroke-linecap="round" stroke-miterlimit="10" cx="2424" cy="580.2" r="1.1"/>
	<circle fill="none" stroke="#9163AA" stroke-linecap="round" stroke-miterlimit="10" cx="2425.3" cy="580.3" r="0.4"/>
	<circle fill="none" stroke="#8CAB98" stroke-linecap="round" stroke-miterlimit="10" cx="2423.4" cy="579.1" r="0.8"/>
	<circle opacity="0.7" fill="#FFFFFF" cx="2314.2" cy="569.8" r="2.8"/>
	<circle fill="none" stroke="#C9507E" stroke-linecap="round" stroke-miterlimit="10" cx="2314" cy="570" r="3.8"/>
	<circle fill="none" stroke="#9163AA" stroke-linecap="round" stroke-miterlimit="10" cx="2313.5" cy="569.4" r="1.6"/>
	<circle fill="none" stroke="#8CAB98" stroke-linecap="round" stroke-miterlimit="10" cx="2313.5" cy="570.5" r="1.9"/>
</g>
<g id="_x30_6L_x5F_Copper_x5F_Front">
	<circle fill="none" stroke="#B87332" stroke-linecap="round" stroke-miterlimit="10" cx="2423.8" cy="579.9" r="26.8"/>
	<circle fill="none" stroke="#B87332" stroke-linecap="round" stroke-miterlimit="10" cx="2423.8" cy="579.9" r="26.8"/>
	<circle fill="none" stroke="#B87332" stroke-linecap="round" stroke-miterlimit="10" cx="2423.8" cy="579.9" r="26.8"/>
	<circle fill="none" stroke="#B87332" stroke-linecap="round" stroke-miterlimit="10" cx="2313.4" cy="570" r="26.8"/>
	<circle fill="none" stroke="#B87332" stroke-linecap="round" stroke-miterlimit="10" cx="2313.4" cy="570" r="26.8"/>
	<circle fill="none" stroke="#B87332" stroke-linecap="round" stroke-miterlimit="10" cx="2313.4" cy="570" r="26.8"/>
	
		<circle fill="none" stroke="#B87332" stroke-width="1.2756" stroke-linecap="round" stroke-miterlimit="10" cx="2313.4" cy="570" r="26.8"/>
	
		<circle fill="none" stroke="#B87332" stroke-width="1.2756" stroke-linecap="round" stroke-miterlimit="10" cx="2423.8" cy="579.9" r="26.8"/>
</g>
<g id="_x30_5L_x5F_Print_x5F_Back">
	<circle opacity="0.7" fill="#FFFFFF" cx="1965.7" cy="508" r="19"/>
	<circle fill="none" stroke="#C9507E" stroke-linecap="round" stroke-miterlimit="10" cx="1966.5" cy="507.3" r="19.3"/>
	<circle fill="none" stroke="#9163AA" stroke-linecap="round" stroke-miterlimit="10" cx="1965.2" cy="507.5" r="17.9"/>
	<circle fill="none" stroke="#8CAB98" stroke-linecap="round" stroke-miterlimit="10" cx="1965.5" cy="507.1" r="16"/>
	<circle opacity="0.7" fill="#FFFFFF" cx="1710.1" cy="474.9" r="22.4"/>
	<circle fill="none" stroke="#C9507E" stroke-linecap="round" stroke-miterlimit="10" cx="1709.4" cy="474.8" r="21.3"/>
	<circle fill="none" stroke="#9163AA" stroke-linecap="round" stroke-miterlimit="10" cx="1710.3" cy="475.5" r="22.7"/>
	<circle fill="none" stroke="#8CAB98" stroke-linecap="round" stroke-miterlimit="10" cx="1709.6" cy="474" r="24"/>
</g>
<g id="_x30_5L_x5F_Copper_x5F_Front">
	<circle fill="none" stroke="#B87332" stroke-linecap="round" stroke-miterlimit="10" cx="1965.6" cy="507.5" r="26.8"/>
	<circle fill="none" stroke="#B87332" stroke-linecap="round" stroke-miterlimit="10" cx="1965.6" cy="507.5" r="26.8"/>
	<circle fill="none" stroke="#B87332" stroke-linecap="round" stroke-miterlimit="10" cx="1965.6" cy="507.5" r="26.8"/>
	
		<circle fill="none" stroke="#B87332" stroke-width="1.2756" stroke-linecap="round" stroke-miterlimit="10" cx="1965.6" cy="507.5" r="26.8"/>
	
		<circle fill="none" stroke="#B87332" stroke-width="1.2756" stroke-linecap="round" stroke-miterlimit="10" cx="1709.9" cy="474.5" r="26.8"/>
	
		<circle fill="none" stroke="#B87332" stroke-width="1.2756" stroke-linecap="round" stroke-miterlimit="10" cx="1709.9" cy="474.5" r="26.8"/>
</g>
<g id="_x30_8L_x5F_Print_x5F_Back">
	<circle opacity="0.7" fill="#FFFFFF" cx="1870.3" cy="530.2" r="23"/>
	<circle fill="none" stroke="#C9507E" stroke-linecap="round" stroke-miterlimit="10" cx="1870.6" cy="529" r="23.1"/>
	<circle fill="none" stroke="#9163AA" stroke-linecap="round" stroke-miterlimit="10" cx="1869.7" cy="529.4" r="21.9"/>
	<circle fill="none" stroke="#8CAB98" stroke-linecap="round" stroke-miterlimit="10" cx="1870.7" cy="529.2" r="22.2"/>
	<circle opacity="0.7" fill="#FFFFFF" cx="2157.2" cy="527.2" r="19.1"/>
	<circle fill="none" stroke="#C9507E" stroke-linecap="round" stroke-miterlimit="10" cx="2157.1" cy="527.1" r="19.1"/>
	<circle fill="none" stroke="#9163AA" stroke-linecap="round" stroke-miterlimit="10" cx="2157.4" cy="526.3" r="19.1"/>
	<circle fill="none" stroke="#8CAB98" stroke-linecap="round" stroke-miterlimit="10" cx="2155.9" cy="527.1" r="19.5"/>
</g>
<g id="_x30_8L_x5F_Copper_x5F_Front">
	
		<circle fill="none" stroke="#B87332" stroke-width="1.2756" stroke-linecap="round" stroke-miterlimit="10" cx="2156.5" cy="527" r="26.8"/>
	
		<circle fill="none" stroke="#B87332" stroke-width="1.2756" stroke-linecap="round" stroke-miterlimit="10" cx="1870.2" cy="529.5" r="26.8"/>
</g>
<g id="_x30_4L_x5F_Print_x5F_Back">
	<circle opacity="0.7" fill="#FFFFFF" cx="1410" cy="366.2" r="8.7"/>
	<circle fill="none" stroke="#C9507E" stroke-linecap="round" stroke-miterlimit="10" cx="1410.4" cy="366.3" r="9.1"/>
	<circle fill="none" stroke="#9163AA" stroke-linecap="round" stroke-miterlimit="10" cx="1410.3" cy="366.6" r="8.4"/>
	<circle fill="none" stroke="#8CAB98" stroke-linecap="round" stroke-miterlimit="10" cx="1410.6" cy="366.5" r="7.3"/>
	<circle opacity="0.7" fill="#FFFFFF" cx="1550.1" cy="309" r="17.6"/>
	<circle fill="none" stroke="#C9507E" stroke-linecap="round" stroke-miterlimit="10" cx="1549.7" cy="310.3" r="17.5"/>
	<circle fill="none" stroke="#9163AA" stroke-linecap="round" stroke-miterlimit="10" cx="1549.4" cy="309.1" r="19.2"/>
	<circle fill="none" stroke="#8CAB98" stroke-linecap="round" stroke-miterlimit="10" cx="1549.4" cy="309.7" r="18.5"/>
</g>
<g id="_x30_4L_x5F_Copper_x5F_Front">
	<circle fill="none" stroke="#B87332" stroke-linecap="round" stroke-miterlimit="10" cx="1549.4" cy="309.4" r="26.8"/>
	<circle fill="none" stroke="#B87332" stroke-linecap="round" stroke-miterlimit="10" cx="1410.7" cy="366.1" r="26.8"/>
	<circle fill="none" stroke="#B87332" stroke-linecap="round" stroke-miterlimit="10" cx="1549.4" cy="309.4" r="26.8"/>
	<circle fill="none" stroke="#B87332" stroke-linecap="round" stroke-miterlimit="10" cx="1410.7" cy="366.1" r="26.8"/>
	<circle fill="none" stroke="#B87332" stroke-linecap="round" stroke-miterlimit="10" cx="1549.4" cy="309.4" r="26.8"/>
	<circle fill="none" stroke="#B87332" stroke-linecap="round" stroke-miterlimit="10" cx="1410.7" cy="366.1" r="26.8"/>
	
		<circle fill="none" stroke="#B87332" stroke-width="1.2756" stroke-linecap="round" stroke-miterlimit="10" cx="1549.4" cy="309.4" r="26.8"/>
	
		<circle fill="none" stroke="#B87332" stroke-width="1.2756" stroke-linecap="round" stroke-miterlimit="10" cx="1410.7" cy="366.1" r="26.8"/>
</g>
<g id="_x30_3L_x5F_Print_x5F_Back">
	<circle opacity="0.7" fill="#FFFFFF" cx="1173.7" cy="285.8" r="11.8"/>
	<circle fill="none" stroke="#C9507E" stroke-linecap="round" stroke-miterlimit="10" cx="1173" cy="285.4" r="15.5"/>
	<circle fill="none" stroke="#9163AA" stroke-linecap="round" stroke-miterlimit="10" cx="1173.2" cy="285.4" r="9.5"/>
	<circle fill="none" stroke="#8CAB98" stroke-linecap="round" stroke-miterlimit="10" cx="1173.6" cy="285.3" r="10.2"/>
	<circle opacity="0.7" fill="#FFFFFF" cx="1260.5" cy="339.9" r="4.6"/>
	<circle fill="none" stroke="#C9507E" stroke-linecap="round" stroke-miterlimit="10" cx="1260.3" cy="339.5" r="4.8"/>
	<circle fill="none" stroke="#9163AA" stroke-linecap="round" stroke-miterlimit="10" cx="1259.1" cy="339.8" r="3.7"/>
	<circle fill="none" stroke="#8CAB98" stroke-linecap="round" stroke-miterlimit="10" cx="1259.6" cy="338.8" r="3.5"/>
</g>
<g id="_x30_3L_x5F_Copper_x5F_Front">
	<circle fill="none" stroke="#B87332" stroke-linecap="round" stroke-miterlimit="10" cx="1260.7" cy="338.9" r="26.8"/>
	<circle fill="none" stroke="#B87332" stroke-linecap="round" stroke-miterlimit="10" cx="1173.4" cy="285.4" r="26.8"/>
	<circle fill="none" stroke="#B87332" stroke-linecap="round" stroke-miterlimit="10" cx="1260.7" cy="338.9" r="26.8"/>
	<circle fill="none" stroke="#B87332" stroke-linecap="round" stroke-miterlimit="10" cx="1173.4" cy="285.4" r="26.8"/>
	<circle fill="none" stroke="#B87332" stroke-linecap="round" stroke-miterlimit="10" cx="1260.7" cy="338.9" r="26.8"/>
	<circle fill="none" stroke="#B87332" stroke-linecap="round" stroke-miterlimit="10" cx="1173.4" cy="285.4" r="26.8"/>
	
		<circle fill="none" stroke="#B87332" stroke-width="1.2756" stroke-linecap="round" stroke-miterlimit="10" cx="1260.7" cy="338.9" r="26.8"/>
	
		<circle fill="none" stroke="#B87332" stroke-width="1.2756" stroke-linecap="round" stroke-miterlimit="10" cx="1173.4" cy="285.4" r="26.8"/>
</g>
<g id="_x30_2L_x5F_Print_x5F_Back">
	<circle opacity="0.7" fill="#FFFFFF" cx="896.3" cy="389.9" r="21.4"/>
	<circle fill="none" stroke="#C9507E" stroke-linecap="round" stroke-miterlimit="10" cx="896.4" cy="389" r="21.8"/>
	<circle fill="none" stroke="#9163AA" stroke-linecap="round" stroke-miterlimit="10" cx="896.4" cy="389.3" r="20.9"/>
	<circle fill="none" stroke="#8CAB98" stroke-linecap="round" stroke-miterlimit="10" cx="896.5" cy="391" r="20.7"/>
	<circle opacity="0.7" fill="#FFFFFF" cx="1040.1" cy="468.3" r="7.9"/>
	<circle fill="none" stroke="#C9507E" stroke-linecap="round" stroke-miterlimit="10" cx="1039.7" cy="467.7" r="9.1"/>
	<circle fill="none" stroke="#9163AA" stroke-linecap="round" stroke-miterlimit="10" cx="1039.6" cy="467" r="6.7"/>
	<circle fill="none" stroke="#8CAB98" stroke-linecap="round" stroke-miterlimit="10" cx="1039.9" cy="467" r="8.2"/>
</g>
<g id="_x30_2L_x5F_Copper_x5F_Front">
	<circle fill="none" stroke="#B87332" stroke-linecap="round" stroke-miterlimit="10" cx="897.1" cy="389.1" r="26.8"/>
	<circle fill="none" stroke="#B87332" stroke-linecap="round" stroke-miterlimit="10" cx="1040" cy="467.7" r="26.8"/>
	<circle fill="none" stroke="#B87332" stroke-linecap="round" stroke-miterlimit="10" cx="897.1" cy="389.1" r="26.8"/>
	<circle fill="none" stroke="#B87332" stroke-linecap="round" stroke-miterlimit="10" cx="1040" cy="467.7" r="26.8"/>
	<circle fill="none" stroke="#B87332" stroke-linecap="round" stroke-miterlimit="10" cx="897.1" cy="389.1" r="26.8"/>
	<circle fill="none" stroke="#B87332" stroke-linecap="round" stroke-miterlimit="10" cx="1040" cy="467.7" r="26.8"/>
	
		<circle fill="none" stroke="#B87332" stroke-width="1.2756" stroke-linecap="round" stroke-miterlimit="10" cx="897.1" cy="389.1" r="26.8"/>
	
		<circle fill="none" stroke="#B87332" stroke-width="1.2756" stroke-linecap="round" stroke-miterlimit="10" cx="1040" cy="467.7" r="26.8"/>
</g>
<g id="_x30_7_x5F_Print_Back">
	<circle opacity="0.7" fill="#FFFFFF" cx="953.6" cy="487.7" r="25.6"/>
	<circle fill="none" stroke="#C9507E" stroke-linecap="round" stroke-miterlimit="10" cx="953.9" cy="487.6" r="25.5"/>
	<circle fill="none" stroke="#9163AA" stroke-linecap="round" stroke-miterlimit="10" cx="953.5" cy="487.3" r="26.6"/>
	<circle fill="none" stroke="#8CAB98" stroke-linecap="round" stroke-miterlimit="10" cx="953.1" cy="488.1" r="25.5"/>
	<circle opacity="0.7" fill="#FFFFFF" cx="1144.7" cy="412" r="13.1"/>
	<circle fill="none" stroke="#C9507E" stroke-linecap="round" stroke-miterlimit="10" cx="1144.5" cy="413" r="17.9"/>
	<circle fill="none" stroke="#9163AA" stroke-linecap="round" stroke-miterlimit="10" cx="1144.9" cy="412.9" r="9.1"/>
	<circle fill="none" stroke="#8CAB98" stroke-linecap="round" stroke-miterlimit="10" cx="1145" cy="411.8" r="9.4"/>
</g>
<g id="_x30_7L_x5F_Copper_x5F_Front">
	
		<circle fill="none" stroke="#B87332" stroke-width="1.2756" stroke-linecap="round" stroke-miterlimit="10" cx="1145" cy="412.3" r="26.8"/>
	
		<circle fill="none" stroke="#B87332" stroke-width="1.2756" stroke-linecap="round" stroke-miterlimit="10" cx="953.5" cy="487.6" r="26.8"/>
</g>
<g id="_x30_1L_x5F_Print_x5F_Back">
	<circle opacity="0.7" fill="#FFFFFF" cx="679.1" cy="360.7" r="18.2"/>
	
		<circle fill="none" stroke="#C9507E" stroke-width="1.2756" stroke-linecap="round" stroke-miterlimit="10" cx="679.4" cy="360.8" r="18.4"/>
	
		<circle fill="none" stroke="#9163AA" stroke-width="1.2756" stroke-linecap="round" stroke-miterlimit="10" cx="679.9" cy="360.3" r="15.5"/>
	
		<circle fill="none" stroke="#8CAB98" stroke-width="1.2756" stroke-linecap="round" stroke-miterlimit="10" cx="679.2" cy="361.1" r="17.4"/>
	<circle opacity="0.7" fill="#FFFFFF" cx="780" cy="331.2" r="13.4"/>
	<circle fill="none" stroke="#C9507E" stroke-linecap="round" stroke-miterlimit="10" cx="781.1" cy="329.4" r="13.4"/>
	<circle fill="none" stroke="#9163AA" stroke-linecap="round" stroke-miterlimit="10" cx="781.2" cy="331.2" r="13.4"/>
	<circle fill="none" stroke="#8CAB98" stroke-linecap="round" stroke-miterlimit="10" cx="779.8" cy="331.3" r="14.4"/>
</g>
<g id="_x30_1L_x5F_Copper_x5F_Front">
	<circle fill="none" stroke="#B87332" stroke-linecap="round" stroke-miterlimit="10" cx="679.4" cy="361.1" r="26.8"/>
	<circle fill="none" stroke="#B87332" stroke-linecap="round" stroke-miterlimit="10" cx="780.3" cy="330.6" r="26.8"/>
	<circle fill="none" stroke="#B87332" stroke-linecap="round" stroke-miterlimit="10" cx="679.4" cy="361.1" r="26.8"/>
	<circle fill="none" stroke="#B87332" stroke-linecap="round" stroke-miterlimit="10" cx="780.3" cy="330.6" r="26.8"/>
	<circle fill="none" stroke="#B87332" stroke-linecap="round" stroke-miterlimit="10" cx="679.4" cy="361.1" r="26.8"/>
	<circle fill="none" stroke="#B87332" stroke-linecap="round" stroke-miterlimit="10" cx="780.3" cy="330.6" r="26.8"/>
	
		<circle fill="none" stroke="#B87332" stroke-width="1.2756" stroke-linecap="round" stroke-miterlimit="10" cx="679.4" cy="361.1" r="26.8"/>
	
		<circle fill="none" stroke="#B87332" stroke-width="1.2756" stroke-linecap="round" stroke-miterlimit="10" cx="780.3" cy="330.6" r="26.8"/>
</g>
<g id="AR_x5F_layer">
	<g>
		<text transform="matrix(1 0 0 1 582.1855 363.6624)"><tspan x="0" y="0" fill="#FFFFFF" font-family="'Roboto-Regular'" font-size="7">Ganges B</tspan><tspan x="29.8" y="0" fill="#FFFFFF" font-family="'Roboto-Regular'" font-size="7">r</tspan><tspan x="32" y="0" fill="#FFFFFF" font-family="'Roboto-Regular'" font-size="7">ahmaput</tspan><tspan x="59.7" y="0" fill="#FFFFFF" font-family="'Roboto-Regular'" font-size="7">r</tspan><tspan x="61.9" y="0" fill="#FFFFFF" font-family="'Roboto-Regular'" font-size="7">a</tspan></text>
	</g>
	<g>
		<text transform="matrix(1 0 0 1 814.3105 330.5875)"><tspan x="0" y="0" fill="#FFFFFF" font-family="'Roboto-Regular'" font-size="7">God</tspan><tspan x="12.7" y="0" fill="#FFFFFF" font-family="'Roboto-Regular'" font-size="7">av</tspan><tspan x="19.8" y="0" fill="#FFFFFF" font-family="'Roboto-Regular'" font-size="7">ari</tspan></text>
	</g>
	<g>
		<text transform="matrix(1 0 0 1 933.2109 387.466)"><tspan x="0" y="0" fill="#FFFFFF" font-family="'Roboto-Regular'" font-size="7">Huang He </tspan><tspan x="32.6" y="0" fill="#FFFFFF" font-family="'Roboto-Regular'" font-size="7">(</tspan><tspan x="35.1" y="0" fill="#FFFFFF" font-family="'Roboto-Regular'" font-size="7">Y</tspan><tspan x="39.1" y="0" fill="#FFFFFF" font-family="'Roboto-Regular'" font-size="7">ellow</tspan></text>
	</g>
	<g>
		<text transform="matrix(1 0 0 1 933.2104 394.6217)"><tspan x="0" y="0" fill="#FFFFFF" font-family="'Roboto-Regular'" font-size="6.5912">Ri</tspan><tspan x="5.7" y="0" fill="#FFFFFF" font-family="'Roboto-Regular'" font-size="6.5912">v</tspan><tspan x="8.8" y="0" fill="#FFFFFF" font-family="'Roboto-Regular'" font-size="6.5912">er)</tspan></text>
	</g>
	<g>
		<text transform="matrix(1 0 0 1 1073.5376 469.2539)" fill="#FFFFFF" font-family="'Roboto-Regular'" font-size="7">Rhine</text>
	</g>
	<g>
		<text transform="matrix(1 0 0 1 860.851 489.8027)"><tspan x="0" y="0" fill="#FFFFFF" font-family="'Roboto-Regular'" font-size="7">Si</tspan><tspan x="5.9" y="0" fill="#FFFFFF" font-family="'Roboto-Regular'" font-size="7">r</tspan><tspan x="8.2" y="0" fill="#FFFFFF" font-family="'Roboto-Regular'" font-size="7">da</tspan><tspan x="15.9" y="0" fill="#FFFFFF" font-family="'Roboto-Regular'" font-size="7">r</tspan><tspan x="18.3" y="0" fill="#FFFFFF" font-family="'Roboto-Regular'" font-size="7">y</tspan><tspan x="21.6" y="0" fill="#FFFFFF" font-family="'Roboto-Regular'" font-size="7">o (Syr Da</tspan><tspan x="49.7" y="0" fill="#FFFFFF" font-family="'Roboto-Regular'" font-size="7">r</tspan><tspan x="52.1" y="0" fill="#FFFFFF" font-family="'Roboto-Regular'" font-size="7">y</tspan><tspan x="55.4" y="0" fill="#FFFFFF" font-family="'Roboto-Regular'" font-size="7">a)</tspan></text>
	</g>
	<g>
		<text transform="matrix(1 0 0 1 1178.9033 411.821)"><tspan x="0" y="0" fill="#FFFFFF" font-family="'Roboto-Regular'" font-size="7">Mississippi Ri</tspan><tspan x="42.9" y="0" fill="#FFFFFF" font-family="'Roboto-Regular'" font-size="7">v</tspan><tspan x="46.3" y="0" fill="#FFFFFF" font-family="'Roboto-Regular'" font-size="7">er</tspan></text>
	</g>
	<g>
		<text transform="matrix(1 0 0 1 1216.3296 343.526)" fill="#FFFFFF" font-family="'Roboto-Regular'" font-size="7">Nile</text>
	</g>
	<g>
		<text transform="matrix(1 0 0 1 1207.4331 285.8219)" fill="#FFFFFF" font-family="'Roboto-Regular'" font-size="7">Ob</text>
	</g>
	<g>
		<text transform="matrix(1 0 0 1 1586.1431 309.7128)"><tspan x="0" y="0" fill="#FFFFFF" font-family="'Roboto-Regular'" font-size="7">Amuda</tspan><tspan x="22.3" y="0" fill="#FFFFFF" font-family="'Roboto-Regular'" font-size="7">r</tspan><tspan x="24.7" y="0" fill="#FFFFFF" font-family="'Roboto-Regular'" font-size="7">y</tspan><tspan x="28" y="0" fill="#FFFFFF" font-family="'Roboto-Regular'" font-size="7">o</tspan></text>
	</g>
	<g>
		<g>
			<text transform="matrix(1 0 0 1 1443.2085 362.1238)"><tspan x="0" y="0" fill="#FFFFFF" font-family="'Roboto-Regular'" font-size="7">Y</tspan><tspan x="4" y="0" fill="#FFFFFF" font-family="'Roboto-Regular'" font-size="7">angt</tspan><tspan x="17.8" y="0" fill="#FFFFFF" font-family="'Roboto-Regular'" font-size="7">z</tspan><tspan x="21.3" y="0" fill="#FFFFFF" font-family="'Roboto-Regular'" font-size="7">e Ri</tspan><tspan x="32.7" y="0" fill="#FFFFFF" font-family="'Roboto-Regular'" font-size="7">v</tspan><tspan x="36" y="0" fill="#FFFFFF" font-family="'Roboto-Regular'" font-size="7">er (Chang</tspan></text>
		</g>
		<g>
			<text transform="matrix(1 0 0 1 1443.2085 369.2791)" fill="#FFFFFF" font-family="'Roboto-Regular'" font-size="7">Jiang)</text>
		</g>
	</g>
	<g>
		<text transform="matrix(1 0 0 1 1747.5044 470.8957)"><tspan x="0" y="0" fill="#FFFFFF" font-family="'Roboto-Regular'" font-size="6.5912">Colo</tspan><tspan x="13.4" y="0" fill="#FFFFFF" font-family="'Roboto-Regular'" font-size="6.5912">r</tspan><tspan x="15.5" y="0" fill="#FFFFFF" font-family="'Roboto-Regular'" font-size="6.5912">ado Ri</tspan><tspan x="33.9" y="0" fill="#FFFFFF" font-family="'Roboto-Regular'" font-size="6.5912">v</tspan><tspan x="37" y="0" fill="#FFFFFF" font-family="'Roboto-Regular'" font-size="6.5912">er</tspan></text>
	</g>
	<g>
		<text transform="matrix(1 0 0 1 1747.5044 478.0519)"><tspan x="0" y="0" fill="#FFFFFF" font-family="'Roboto-Regular'" font-size="7">(</tspan><tspan x="2.4" y="0" fill="#FFFFFF" font-family="'Roboto-Regular'" font-size="7">P</tspan><tspan x="6.8" y="0" fill="#FFFFFF" font-family="'Roboto-Regular'" font-size="7">acific Ocean)</tspan></text>
	</g>
	<g>
		<text transform="matrix(1 0 0 1 1817.6963 530.1906)" fill="#FFFFFF" font-family="'Roboto-Regular'" font-size="7">Indus</text>
	</g>
	<g>
		<text transform="matrix(1 0 0 1 2000.1633 508.1243)"><tspan x="0" y="0" fill="#FFFFFF" font-family="'Roboto-Regular'" font-size="7">Tigris &amp; </tspan><tspan x="25.3" y="0" fill="#FFFFFF" font-family="'Roboto-Regular'" font-size="7">E</tspan><tspan x="29.2" y="0" fill="#FFFFFF" font-family="'Roboto-Regular'" font-size="7">uph</tspan><tspan x="40.9" y="0" fill="#FFFFFF" font-family="'Roboto-Regular'" font-size="7">r</tspan><tspan x="43.1" y="0" fill="#FFFFFF" font-family="'Roboto-Regular'" font-size="7">ates</tspan></text>
	</g>
	<g>
		<text transform="matrix(1 0 0 1 2246.6604 572.6878)"><tspan x="0" y="0" fill="#FFFFFF" font-family="'Roboto-Regular'" font-size="7">Ama</tspan><tspan x="14.5" y="0" fill="#FFFFFF" font-family="'Roboto-Regular'" font-size="7">z</tspan><tspan x="17.9" y="0" fill="#FFFFFF" font-family="'Roboto-Regular'" font-size="7">onas</tspan></text>
	</g>
	<g>
		<text transform="matrix(1 0 0 1 2095.676 529.4772)" fill="#FFFFFF" font-family="'Roboto-Regular'" font-size="7">Narmada</text>
	</g>
	<circle opacity="0.7" fill="#FFFFFF" cx="2424.1" cy="580.3" r="0.9"/>
	<circle fill="none" stroke="#C9507E" stroke-linecap="round" stroke-miterlimit="10" cx="2424" cy="580.2" r="1.1"/>
	<circle fill="none" stroke="#9163AA" stroke-linecap="round" stroke-miterlimit="10" cx="2425.3" cy="580.3" r="0.4"/>
	<circle fill="none" stroke="#8CAB98" stroke-linecap="round" stroke-miterlimit="10" cx="2423.4" cy="579.1" r="0.8"/>
	<circle opacity="0.7" fill="#FFFFFF" cx="2314.2" cy="569.8" r="2.8"/>
	<circle fill="none" stroke="#C9507E" stroke-linecap="round" stroke-miterlimit="10" cx="2314" cy="570" r="3.8"/>
	<circle fill="none" stroke="#9163AA" stroke-linecap="round" stroke-miterlimit="10" cx="2313.5" cy="569.4" r="1.6"/>
	<circle fill="none" stroke="#8CAB98" stroke-linecap="round" stroke-miterlimit="10" cx="2313.5" cy="570.5" r="1.9"/>
	<circle fill="none" stroke="#B87332" stroke-linecap="round" stroke-miterlimit="10" cx="2423.8" cy="579.9" r="26.8"/>
	<circle fill="none" stroke="#B87332" stroke-linecap="round" stroke-miterlimit="10" cx="2423.8" cy="579.9" r="26.8"/>
	<circle fill="none" stroke="#B87332" stroke-linecap="round" stroke-miterlimit="10" cx="2423.8" cy="579.9" r="26.8"/>
	<circle fill="none" stroke="#B87332" stroke-linecap="round" stroke-miterlimit="10" cx="2313.4" cy="570" r="26.8"/>
	<circle fill="none" stroke="#B87332" stroke-linecap="round" stroke-miterlimit="10" cx="2313.4" cy="570" r="26.8"/>
	<circle fill="none" stroke="#B87332" stroke-linecap="round" stroke-miterlimit="10" cx="2313.4" cy="570" r="26.8"/>
	
		<circle fill="none" stroke="#B87332" stroke-width="1.2756" stroke-linecap="round" stroke-miterlimit="10" cx="2313.4" cy="570" r="26.8"/>
	
		<circle fill="none" stroke="#B87332" stroke-width="1.2756" stroke-linecap="round" stroke-miterlimit="10" cx="2423.8" cy="579.9" r="26.8"/>
	<circle opacity="0.7" fill="#FFFFFF" cx="1965.7" cy="508" r="19"/>
	<circle fill="none" stroke="#C9507E" stroke-linecap="round" stroke-miterlimit="10" cx="1966.5" cy="507.3" r="19.3"/>
	<circle fill="none" stroke="#9163AA" stroke-linecap="round" stroke-miterlimit="10" cx="1965.2" cy="507.5" r="17.9"/>
	<circle fill="none" stroke="#8CAB98" stroke-linecap="round" stroke-miterlimit="10" cx="1965.5" cy="507.1" r="16"/>
	<circle opacity="0.7" fill="#FFFFFF" cx="1710.1" cy="474.9" r="22.4"/>
	<circle fill="none" stroke="#C9507E" stroke-linecap="round" stroke-miterlimit="10" cx="1709.4" cy="474.8" r="21.3"/>
	<circle fill="none" stroke="#9163AA" stroke-linecap="round" stroke-miterlimit="10" cx="1710.3" cy="475.5" r="22.7"/>
	<circle fill="none" stroke="#8CAB98" stroke-linecap="round" stroke-miterlimit="10" cx="1709.6" cy="474" r="24"/>
	<circle fill="none" stroke="#B87332" stroke-linecap="round" stroke-miterlimit="10" cx="1965.6" cy="507.5" r="26.8"/>
	<circle fill="none" stroke="#B87332" stroke-linecap="round" stroke-miterlimit="10" cx="1965.6" cy="507.5" r="26.8"/>
	<circle fill="none" stroke="#B87332" stroke-linecap="round" stroke-miterlimit="10" cx="1965.6" cy="507.5" r="26.8"/>
	
		<circle fill="none" stroke="#B87332" stroke-width="1.2756" stroke-linecap="round" stroke-miterlimit="10" cx="1965.6" cy="507.5" r="26.8"/>
	
		<circle fill="none" stroke="#B87332" stroke-width="1.2756" stroke-linecap="round" stroke-miterlimit="10" cx="1709.9" cy="474.5" r="26.8"/>
	
		<circle fill="none" stroke="#B87332" stroke-width="1.2756" stroke-linecap="round" stroke-miterlimit="10" cx="1709.9" cy="474.5" r="26.8"/>
	<circle opacity="0.7" fill="#FFFFFF" cx="1870.3" cy="530.2" r="23"/>
	<circle fill="none" stroke="#C9507E" stroke-linecap="round" stroke-miterlimit="10" cx="1870.6" cy="529" r="23.1"/>
	<circle fill="none" stroke="#9163AA" stroke-linecap="round" stroke-miterlimit="10" cx="1869.7" cy="529.4" r="21.9"/>
	<circle fill="none" stroke="#8CAB98" stroke-linecap="round" stroke-miterlimit="10" cx="1870.7" cy="529.2" r="22.2"/>
	<circle opacity="0.7" fill="#FFFFFF" cx="2157.2" cy="527.2" r="19.1"/>
	<circle fill="none" stroke="#C9507E" stroke-linecap="round" stroke-miterlimit="10" cx="2157.1" cy="527.1" r="19.1"/>
	<circle fill="none" stroke="#9163AA" stroke-linecap="round" stroke-miterlimit="10" cx="2157.4" cy="526.3" r="19.1"/>
	<circle fill="none" stroke="#8CAB98" stroke-linecap="round" stroke-miterlimit="10" cx="2155.9" cy="527.1" r="19.5"/>
	
		<circle fill="none" stroke="#B87332" stroke-width="1.2756" stroke-linecap="round" stroke-miterlimit="10" cx="2156.5" cy="527" r="26.8"/>
	
		<circle fill="none" stroke="#B87332" stroke-width="1.2756" stroke-linecap="round" stroke-miterlimit="10" cx="1870.2" cy="529.5" r="26.8"/>
	<circle opacity="0.7" fill="#FFFFFF" cx="1410" cy="366.2" r="8.7"/>
	<circle fill="none" stroke="#C9507E" stroke-linecap="round" stroke-miterlimit="10" cx="1410.4" cy="366.3" r="9.1"/>
	<circle fill="none" stroke="#9163AA" stroke-linecap="round" stroke-miterlimit="10" cx="1410.3" cy="366.6" r="8.4"/>
	<circle fill="none" stroke="#8CAB98" stroke-linecap="round" stroke-miterlimit="10" cx="1410.6" cy="366.5" r="7.3"/>
	<circle opacity="0.7" fill="#FFFFFF" cx="1550.1" cy="309" r="17.6"/>
	<circle fill="none" stroke="#C9507E" stroke-linecap="round" stroke-miterlimit="10" cx="1549.7" cy="310.3" r="17.5"/>
	<circle fill="none" stroke="#9163AA" stroke-linecap="round" stroke-miterlimit="10" cx="1549.4" cy="309.1" r="19.2"/>
	<circle fill="none" stroke="#8CAB98" stroke-linecap="round" stroke-miterlimit="10" cx="1549.4" cy="309.7" r="18.5"/>
	<circle fill="none" stroke="#B87332" stroke-linecap="round" stroke-miterlimit="10" cx="1549.4" cy="309.4" r="26.8"/>
	<circle fill="none" stroke="#B87332" stroke-linecap="round" stroke-miterlimit="10" cx="1410.7" cy="366.1" r="26.8"/>
	<circle fill="none" stroke="#B87332" stroke-linecap="round" stroke-miterlimit="10" cx="1549.4" cy="309.4" r="26.8"/>
	<circle fill="none" stroke="#B87332" stroke-linecap="round" stroke-miterlimit="10" cx="1410.7" cy="366.1" r="26.8"/>
	<circle fill="none" stroke="#B87332" stroke-linecap="round" stroke-miterlimit="10" cx="1549.4" cy="309.4" r="26.8"/>
	<circle fill="none" stroke="#B87332" stroke-linecap="round" stroke-miterlimit="10" cx="1410.7" cy="366.1" r="26.8"/>
	
		<circle fill="none" stroke="#B87332" stroke-width="1.2756" stroke-linecap="round" stroke-miterlimit="10" cx="1549.4" cy="309.4" r="26.8"/>
	
		<circle fill="none" stroke="#B87332" stroke-width="1.2756" stroke-linecap="round" stroke-miterlimit="10" cx="1410.7" cy="366.1" r="26.8"/>
	<circle opacity="0.7" fill="#FFFFFF" cx="1173.7" cy="285.8" r="11.8"/>
	<circle fill="none" stroke="#C9507E" stroke-linecap="round" stroke-miterlimit="10" cx="1173" cy="285.4" r="15.5"/>
	<circle fill="none" stroke="#9163AA" stroke-linecap="round" stroke-miterlimit="10" cx="1173.2" cy="285.4" r="9.5"/>
	<circle fill="none" stroke="#8CAB98" stroke-linecap="round" stroke-miterlimit="10" cx="1173.6" cy="285.3" r="10.2"/>
	<circle opacity="0.7" fill="#FFFFFF" cx="1260.5" cy="339.9" r="4.6"/>
	<circle fill="none" stroke="#C9507E" stroke-linecap="round" stroke-miterlimit="10" cx="1260.3" cy="339.5" r="4.8"/>
	<circle fill="none" stroke="#9163AA" stroke-linecap="round" stroke-miterlimit="10" cx="1259.1" cy="339.8" r="3.7"/>
	<circle fill="none" stroke="#8CAB98" stroke-linecap="round" stroke-miterlimit="10" cx="1259.6" cy="338.8" r="3.5"/>
	<circle fill="none" stroke="#B87332" stroke-linecap="round" stroke-miterlimit="10" cx="1260.7" cy="338.9" r="26.8"/>
	<circle fill="none" stroke="#B87332" stroke-linecap="round" stroke-miterlimit="10" cx="1173.4" cy="285.4" r="26.8"/>
	<circle fill="none" stroke="#B87332" stroke-linecap="round" stroke-miterlimit="10" cx="1260.7" cy="338.9" r="26.8"/>
	<circle fill="none" stroke="#B87332" stroke-linecap="round" stroke-miterlimit="10" cx="1173.4" cy="285.4" r="26.8"/>
	<circle fill="none" stroke="#B87332" stroke-linecap="round" stroke-miterlimit="10" cx="1260.7" cy="338.9" r="26.8"/>
	<circle fill="none" stroke="#B87332" stroke-linecap="round" stroke-miterlimit="10" cx="1173.4" cy="285.4" r="26.8"/>
	
		<circle fill="none" stroke="#B87332" stroke-width="1.2756" stroke-linecap="round" stroke-miterlimit="10" cx="1260.7" cy="338.9" r="26.8"/>
	
		<circle fill="none" stroke="#B87332" stroke-width="1.2756" stroke-linecap="round" stroke-miterlimit="10" cx="1173.4" cy="285.4" r="26.8"/>
	<circle opacity="0.7" fill="#FFFFFF" cx="896.3" cy="389.9" r="21.4"/>
	<circle fill="none" stroke="#C9507E" stroke-linecap="round" stroke-miterlimit="10" cx="896.4" cy="389" r="21.8"/>
	<circle fill="none" stroke="#9163AA" stroke-linecap="round" stroke-miterlimit="10" cx="896.4" cy="389.3" r="20.9"/>
	<circle fill="none" stroke="#8CAB98" stroke-linecap="round" stroke-miterlimit="10" cx="896.5" cy="391" r="20.7"/>
	<circle opacity="0.7" fill="#FFFFFF" cx="1040.1" cy="468.3" r="7.9"/>
	<circle fill="none" stroke="#C9507E" stroke-linecap="round" stroke-miterlimit="10" cx="1039.7" cy="467.7" r="9.1"/>
	<circle fill="none" stroke="#9163AA" stroke-linecap="round" stroke-miterlimit="10" cx="1039.6" cy="467" r="6.7"/>
	<circle fill="none" stroke="#8CAB98" stroke-linecap="round" stroke-miterlimit="10" cx="1039.9" cy="467" r="8.2"/>
	<circle fill="none" stroke="#B87332" stroke-linecap="round" stroke-miterlimit="10" cx="897.1" cy="389.1" r="26.8"/>
	<circle fill="none" stroke="#B87332" stroke-linecap="round" stroke-miterlimit="10" cx="1040" cy="467.7" r="26.8"/>
	<circle fill="none" stroke="#B87332" stroke-linecap="round" stroke-miterlimit="10" cx="897.1" cy="389.1" r="26.8"/>
	<circle fill="none" stroke="#B87332" stroke-linecap="round" stroke-miterlimit="10" cx="1040" cy="467.7" r="26.8"/>
	<circle fill="none" stroke="#B87332" stroke-linecap="round" stroke-miterlimit="10" cx="897.1" cy="389.1" r="26.8"/>
	<circle fill="none" stroke="#B87332" stroke-linecap="round" stroke-miterlimit="10" cx="1040" cy="467.7" r="26.8"/>
	
		<circle fill="none" stroke="#B87332" stroke-width="1.2756" stroke-linecap="round" stroke-miterlimit="10" cx="897.1" cy="389.1" r="26.8"/>
	
		<circle fill="none" stroke="#B87332" stroke-width="1.2756" stroke-linecap="round" stroke-miterlimit="10" cx="1040" cy="467.7" r="26.8"/>
	<circle opacity="0.7" fill="#FFFFFF" cx="953.6" cy="487.7" r="25.6"/>
	<circle fill="none" stroke="#C9507E" stroke-linecap="round" stroke-miterlimit="10" cx="953.9" cy="487.6" r="25.5"/>
	<circle fill="none" stroke="#9163AA" stroke-linecap="round" stroke-miterlimit="10" cx="953.5" cy="487.3" r="26.6"/>
	<circle fill="none" stroke="#8CAB98" stroke-linecap="round" stroke-miterlimit="10" cx="953.1" cy="488.1" r="25.5"/>
	<circle opacity="0.7" fill="#FFFFFF" cx="1144.7" cy="412" r="13.1"/>
	<circle fill="none" stroke="#C9507E" stroke-linecap="round" stroke-miterlimit="10" cx="1144.5" cy="413" r="17.9"/>
	<circle fill="none" stroke="#9163AA" stroke-linecap="round" stroke-miterlimit="10" cx="1144.9" cy="412.9" r="9.1"/>
	<circle fill="none" stroke="#8CAB98" stroke-linecap="round" stroke-miterlimit="10" cx="1145" cy="411.8" r="9.4"/>
	
		<circle fill="none" stroke="#B87332" stroke-width="1.2756" stroke-linecap="round" stroke-miterlimit="10" cx="1145" cy="412.3" r="26.8"/>
	
		<circle fill="none" stroke="#B87332" stroke-width="1.2756" stroke-linecap="round" stroke-miterlimit="10" cx="953.5" cy="487.6" r="26.8"/>
	<circle opacity="0.7" fill="#FFFFFF" cx="679.1" cy="360.7" r="18.2"/>
	
		<circle fill="none" stroke="#C9507E" stroke-width="1.2756" stroke-linecap="round" stroke-miterlimit="10" cx="679.4" cy="360.8" r="18.4"/>
	
		<circle fill="none" stroke="#9163AA" stroke-width="1.2756" stroke-linecap="round" stroke-miterlimit="10" cx="679.9" cy="360.3" r="15.5"/>
	
		<circle fill="none" stroke="#8CAB98" stroke-width="1.2756" stroke-linecap="round" stroke-miterlimit="10" cx="679.2" cy="361.1" r="17.4"/>
	<circle opacity="0.7" fill="#FFFFFF" cx="780" cy="331.2" r="13.4"/>
	<circle fill="none" stroke="#C9507E" stroke-linecap="round" stroke-miterlimit="10" cx="781.1" cy="329.4" r="13.4"/>
	<circle fill="none" stroke="#9163AA" stroke-linecap="round" stroke-miterlimit="10" cx="781.2" cy="331.2" r="13.4"/>
	<circle fill="none" stroke="#8CAB98" stroke-linecap="round" stroke-miterlimit="10" cx="779.8" cy="331.3" r="14.4"/>
	<circle fill="none" stroke="#B87332" stroke-linecap="round" stroke-miterlimit="10" cx="679.4" cy="361.1" r="26.8"/>
	<circle fill="none" stroke="#B87332" stroke-linecap="round" stroke-miterlimit="10" cx="780.3" cy="330.6" r="26.8"/>
	<circle fill="none" stroke="#B87332" stroke-linecap="round" stroke-miterlimit="10" cx="679.4" cy="361.1" r="26.8"/>
	<circle fill="none" stroke="#B87332" stroke-linecap="round" stroke-miterlimit="10" cx="780.3" cy="330.6" r="26.8"/>
	<circle fill="none" stroke="#B87332" stroke-linecap="round" stroke-miterlimit="10" cx="679.4" cy="361.1" r="26.8"/>
	<circle fill="none" stroke="#B87332" stroke-linecap="round" stroke-miterlimit="10" cx="780.3" cy="330.6" r="26.8"/>
	
		<circle fill="none" stroke="#B87332" stroke-width="1.2756" stroke-linecap="round" stroke-miterlimit="10" cx="679.4" cy="361.1" r="26.8"/>
	
		<circle fill="none" stroke="#B87332" stroke-width="1.2756" stroke-linecap="round" stroke-miterlimit="10" cx="780.3" cy="330.6" r="26.8"/>
	<g>
		<text transform="matrix(1 0 0 1 2459.186 580.7403)" fill="#FFFFFF" font-family="'Roboto-Regular'" font-size="7">Niger</text>
	</g>
	<g>
		<text transform="matrix(1 0 0 1 609.5751 203.3165)"><tspan x="0" y="0" fill="#FFFFFF" font-family="'Roboto-Regular'" font-size="7">All Sec</tspan><tspan x="21.2" y="0" fill="#FFFFFF" font-family="'Roboto-Regular'" font-size="7">t</tspan><tspan x="23.4" y="0" fill="#FFFFFF" font-family="'Roboto-Regular'" font-size="7">ors</tspan></text>
	</g>
	
		<circle fill="none" stroke="#9163AA" stroke-width="1.2756" stroke-linecap="round" stroke-miterlimit="10" cx="683" cy="200.7" r="5.1"/>
	<circle fill="#FFFFFF" cx="592.6" cy="200.7" r="5.1"/>
	<g>
		<text transform="matrix(1 0 0 1 699.8732 203.3166)"><tspan x="0" y="0" fill="#FFFFFF" font-family="'Roboto-Regular'" font-size="7">Agricultu</tspan><tspan x="27.9" y="0" fill="#FFFFFF" font-family="'Roboto-Regular'" font-size="7">r</tspan><tspan x="30.2" y="0" fill="#FFFFFF" font-family="'Roboto-Regular'" font-size="7">e</tspan></text>
	</g>
	<circle fill="none" stroke="#C9507E" stroke-linecap="round" stroke-miterlimit="10" cx="773" cy="200.7" r="5.1"/>
	<g>
		<text transform="matrix(1 0 0 1 789.8434 203.3166)" fill="#FFFFFF" font-family="'Roboto-Regular'" font-size="7">Domestic</text>
	</g>
	
		<circle fill="none" stroke="#8CAB98" stroke-width="1.2756" stroke-linecap="round" stroke-miterlimit="10" cx="861.1" cy="200.7" r="5.1"/>
	<g>
		<text transform="matrix(1 0 0 1 877.9428 203.3166)" fill="#FFFFFF" font-family="'Roboto-Regular'" font-size="7">Industrial</text>
	</g>
	<circle fill="none" stroke="#B87332" stroke-linecap="round" stroke-miterlimit="10" cx="946.7" cy="200.7" r="5.1"/>
	<g>
		<text transform="matrix(1 0 0 1 963.6125 200.6991)"><tspan x="0" y="0" fill="#FFFFFF" font-family="'Roboto-Regular'" font-size="7">T</tspan><tspan x="3.8" y="0" fill="#FFFFFF" font-family="'Roboto-Regular'" font-size="7">otal annual </tspan><tspan x="40" y="0" fill="#FFFFFF" font-family="'Roboto-Regular'" font-size="7">av</tspan><tspan x="47.1" y="0" fill="#FFFFFF" font-family="'Roboto-Regular'" font-size="7">ailable flow is also known as</tspan><tspan x="0" y="9" fill="#FFFFFF" font-family="'Roboto-Regular'" font-size="7">blue water</tspan></text>
	</g>
	<rect x="587.4" y="161.8" fill="none" width="153.9" height="24.1"/>
	<text transform="matrix(1 0 0 1 587.4467 169.2705)"><tspan x="0" y="0" fill="#404040" font-family="'Roboto-Light'" font-size="10">BASELINE </tspan><tspan x="48.9" y="0" fill="#404040" font-family="'Roboto-Light'" font-size="10">W</tspan><tspan x="57.9" y="0" fill="#404040" font-family="'Roboto-Light'" font-size="10">A</tspan><tspan x="63.7" y="0" fill="#404040" font-family="'Roboto-Light'" font-size="10">TER STRESS IN </tspan><tspan x="0" y="11.7" fill="#404040" font-family="'Roboto-Light'" font-size="10">RIVER BASINS IN</tspan><tspan x="78.8" y="11.7" fill="#404040" font-family="'Roboto-Light'" font-size="10"> </tspan><tspan x="81.3" y="11.7" fill="#404040" font-family="'Roboto-Light'" font-size="10">THE WORLD</tspan></text>
</g>
</svg>
