<?xml version="1.0" encoding="utf-8"?>
<!-- Generator: Adobe Illustrator 18.0.0, SVG Export Plug-In . SVG Version: 6.00 Build 0)  -->
<!DOCTYPE svg PUBLIC "-//W3C//DTD SVG 1.1//EN" "http://www.w3.org/Graphics/SVG/1.1/DTD/svg11.dtd">
<svg version="1.1" id="_x30_1L_x5F_Copper_x5F_Front"
	 xmlns="http://www.w3.org/2000/svg" xmlns:xlink="http://www.w3.org/1999/xlink" x="0px" y="0px" viewBox="0 0 9451.4 623.5"
	 enable-background="new 0 0 9451.4 623.5" xml:space="preserve">
<g opacity="5.000000e-02">
	<path fill="#B87332" d="M1965.6,539.9c-17.9,0-32.4-14.6-32.4-32.4c0-17.9,14.6-32.4,32.4-32.4c17.9,0,32.4,14.6,32.4,32.4
		C1998.1,525.4,1983.5,539.9,1965.6,539.9z"/>
	<circle fill="#B87332" cx="1965.6" cy="507.5" r="26.8"/>
	<path fill="#B87332" d="M1709.9,506.9c-17.9,0-32.4-14.6-32.4-32.4s14.6-32.4,32.4-32.4c17.9,0,32.4,14.6,32.4,32.4
		S1727.8,506.9,1709.9,506.9z"/>
	<circle fill="#B87332" cx="1709.9" cy="474.5" r="26.8"/>
	<path fill="#B87332" d="M2156.5,559.5c-17.9,0-32.4-14.6-32.4-32.4c0-17.9,14.6-32.4,32.4-32.4s32.4,14.6,32.4,32.4
		C2188.9,544.9,2174.3,559.5,2156.5,559.5z"/>
	<circle fill="#B87332" cx="2156.5" cy="527" r="26.8"/>
	<path fill="#B87332" d="M1870.2,561.9c-17.9,0-32.4-14.6-32.4-32.4c0-17.9,14.6-32.4,32.4-32.4s32.4,14.6,32.4,32.4
		C1902.6,547.4,1888.1,561.9,1870.2,561.9z"/>
	<circle fill="#B87332" cx="1870.2" cy="529.5" r="26.8"/>
	<path fill="#B87332" d="M1549.4,341.9c-17.9,0-32.4-14.6-32.4-32.4c0-17.9,14.6-32.4,32.4-32.4c17.9,0,32.4,14.6,32.4,32.4
		C1581.9,327.3,1567.3,341.9,1549.4,341.9z"/>
	<circle fill="#B87332" cx="1549.4" cy="309.4" r="26.8"/>
	<path fill="#B87332" d="M1410.7,398.5c-17.9,0-32.4-14.6-32.4-32.4s14.6-32.4,32.4-32.4s32.4,14.6,32.4,32.4
		S1428.6,398.5,1410.7,398.5z"/>
	<circle fill="#B87332" cx="1410.7" cy="366.1" r="26.8"/>
	<path fill="#B87332" d="M1260.7,371.4c-17.9,0-32.4-14.6-32.4-32.4s14.6-32.4,32.4-32.4s32.4,14.6,32.4,32.4
		S1278.6,371.4,1260.7,371.4z"/>
	<circle fill="#B87332" cx="1260.7" cy="338.9" r="26.8"/>
	<path fill="#B87332" d="M1173.4,317.8c-17.9,0-32.4-14.6-32.4-32.4c0-17.9,14.6-32.4,32.4-32.4s32.4,14.6,32.4,32.4
		C1205.9,303.3,1191.3,317.8,1173.4,317.8z"/>
	<circle fill="#B87332" cx="1173.4" cy="285.4" r="26.8"/>
	<path fill="#B87332" d="M897.1,421.6c-17.9,0-32.4-14.6-32.4-32.4s14.6-32.4,32.4-32.4s32.4,14.6,32.4,32.4S915,421.6,897.1,421.6z
		"/>
	<circle fill="#B87332" cx="897.1" cy="389.1" r="26.8"/>
	<path fill="#B87332" d="M1040,500.2c-17.9,0-32.4-14.6-32.4-32.4c0-17.9,14.6-32.4,32.4-32.4c17.9,0,32.4,14.6,32.4,32.4
		C1072.5,485.6,1057.9,500.2,1040,500.2z"/>
	<circle fill="#B87332" cx="1040" cy="467.7" r="26.8"/>
	<path fill="#B87332" d="M1145,444.7c-17.9,0-32.4-14.6-32.4-32.4s14.6-32.4,32.4-32.4s32.4,14.6,32.4,32.4S1162.9,444.7,1145,444.7
		z"/>
	<circle fill="#B87332" cx="1145" cy="412.3" r="26.8"/>
	<path fill="#B87332" d="M953.5,520.1c-17.9,0-32.4-14.6-32.4-32.4c0-6.6,2-12.9,5.7-18.4c6-8.9,16-14.2,26.7-14.2
		c8.1,0,15.8,3,21.8,8.5c6.8,6.1,10.7,14.9,10.7,24.1C986,505.5,971.4,520.1,953.5,520.1z"/>
	<path fill="#B87332" d="M971.5,467.7c-4.7-4.3-11-7-18-7c-9.2,0-17.3,4.7-22,11.7c-3,4.3-4.7,9.5-4.7,15.1
		c0,14.8,12,26.8,26.8,26.8c14.8,0,26.8-12,26.8-26.8C980.3,479.7,976.9,472.6,971.5,467.7z"/>
	<path fill="#B87332" d="M679.4,393.5c-17.9,0-32.4-14.6-32.4-32.4s14.6-32.4,32.4-32.4s32.4,14.6,32.4,32.4
		S697.2,393.5,679.4,393.5z"/>
	<circle fill="#B87332" cx="679.4" cy="361.1" r="26.8"/>
	<path fill="#B87332" d="M780.3,363c-17.9,0-32.4-14.6-32.4-32.4c0-17.9,14.6-32.4,32.4-32.4s32.4,14.6,32.4,32.4
		C812.7,348.5,798.2,363,780.3,363z"/>
	<circle fill="#B87332" cx="780.3" cy="330.6" r="26.8"/>
</g>
</svg>
