<?xml version="1.0" encoding="utf-8"?>
<!-- Generator: Adobe Illustrator 18.0.0, SVG Export Plug-In . SVG Version: 6.00 Build 0)  -->
<!DOCTYPE svg PUBLIC "-//W3C//DTD SVG 1.1//EN" "http://www.w3.org/Graphics/SVG/1.1/DTD/svg11.dtd">
<svg version="1.1" id="Layer_4" xmlns="http://www.w3.org/2000/svg" xmlns:xlink="http://www.w3.org/1999/xlink" x="0px" y="0px"
	 viewBox="0 0 9451.4 623.5" enable-background="new 0 0 9451.4 623.5" xml:space="preserve">
<path opacity="5.000000e-02" fill="#B87331" stroke="#E65D90" stroke-width="0.75" stroke-linecap="round" stroke-miterlimit="10" d="
	M1704.6,423c0-0.2,0-0.5,0-0.8c0,0,0-0.2,0-0.3c0-0.1,0-0.2,0-0.3l0,0v-1.4l-0.1-0.2c0-0.2,0.1-0.5,0.1-0.7c0,0,0-0.2,0-0.3
	c0-0.1,0-0.2,0-0.3l0,0l0-1.4l-0.1-0.2c0-0.2,0.1-0.5,0.1-0.7c0,0,0-0.2,0-0.3c0-0.1,0-0.2,0-0.3l0,0l0-1.4l-0.1-0.2
	c0-0.2,0.1-0.5,0.1-0.7c0,0,0-0.2,0-0.3c0-0.1,0-0.2,0-0.3l0,0l0-1.4l-0.1-0.2c0-0.2,0.1-0.5,0.1-0.7c0,0,0-0.2,0-0.3
	c0-0.1,0-0.2,0-0.3l0,0l0-1.4l-0.1-0.2c0-0.2,0.1-0.5,0.1-0.7c0,0,0-0.2,0-0.3c0-0.1,0-0.2,0-0.3l0,0l0-1.4l-0.1-0.2
	c0-0.2,0.1-0.5,0.1-0.7c0,0,0-0.2,0-0.3c0-0.1,0-0.2,0-0.3l0,0l0-1.4l-0.1-0.2c0-0.2,0.1-0.5,0.1-0.7c0,0,0-0.2,0-0.3
	c0-0.1,0-0.2,0-0.3l0,0l0-1.4l-0.1-0.2c0-0.2,0.1-0.5,0.1-0.7c0,0,0-0.2,0-0.3c0-0.1,0-0.2,0-0.3l0,0l0-1.4l-0.1-0.2
	c0-0.2,0.1-0.5,0.1-0.7c0,0,0-0.2,0-0.3c0-0.1,0-0.2,0-0.3l0,0l0-1.4l-0.1-0.2c0-0.2,0.1-0.5,0.1-0.7c0,0,0-0.2,0-0.3
	c0-0.1,0-0.2,0-0.3l0,0l0-1.4l-0.1-0.2c0-0.2,0.1-0.5,0.1-0.7c0,0,0-0.2,0-0.3c0-0.1,0-0.2,0-0.3l0,0l0-1.5l0-0.2c0-0.2,0-0.5,0-0.7
	c0,0,0-0.2,0-0.3c0-0.1,0-0.2,0-0.3l0,0l0-1.4l-0.1-0.2c0-0.2,0.1-0.5,0.1-0.7c0,0,0-0.2,0-0.3c0-0.1,0-0.2,0-0.3l0,0l0-1.4
	l-0.1-0.2c0-0.2,0.1-0.5,0.1-0.7c0,0,0-0.2,0-0.3c0-0.1,0-0.2,0-0.3l0,0l0-1.4l0-0.2c0-0.2,0-0.5,0-0.8c0,0,0-0.2,0-0.3
	c0-0.1,0-0.2,0-0.3l0,0l0-1.4l-0.1-0.2c0-0.2,0.1-0.5,0.1-0.8c0,0,0-0.2,0-0.3c0-0.1,0-0.2,0-0.3l0,0l0-1.4l-0.1-0.2
	c0-0.2,0.1-0.5,0.1-0.7c0,0,0-0.2,0-0.3c0-0.1,0-0.2,0-0.3l0,0l0-1.4l-0.1-0.2c0-0.2,0.1-0.5,0.1-0.7c0,0,0-0.2,0-0.3
	c0-0.1,0-0.2,0-0.3l0,0l0-1.5l0-0.2c0-0.2,0-0.5,0-0.7c0,0,0-0.2,0-0.3c0-0.1,0-0.2,0-0.3l0,0l0-1.4l-0.1-0.2c0-0.1,0-0.3,0-0.4l0,0
	c0,0,0-1.5,0-1.5c0-0.3,0-0.6-0.1-0.9c0-0.3,0.1-0.6,0.1-0.9c0,0,0-0.2,0-0.3c0-0.2,0-0.3,0-0.5c0-0.2,0-0.3,0-0.5
	c0-0.3,0-0.6-0.1-0.9c0-0.3,0.1-0.6,0.1-0.9c0,0,0-0.2,0-0.3c0-0.2,0-0.3,0-0.5c0-0.2,0-0.3,0-0.5c0-0.3,0-0.6-0.1-0.9
	c0-0.3,0.1-0.6,0.1-0.9c0,0,0-0.2,0-0.3c0-0.2,0-0.3,0-0.5c0-0.2,0-0.3,0-0.5c0-0.3,0-0.6-0.1-0.9c0-0.3,0.1-0.6,0.1-0.9
	c0,0,0-0.2,0-0.3c0-0.2,0-0.3,0-0.5c0-0.2,0-0.3,0-0.5c0-0.3,0-0.6-0.1-0.9c0-0.3,0.1-0.6,0.1-0.9c0,0,0-0.2,0-0.3
	c0-0.2,0-0.3,0-0.5c0-0.2,0-0.3,0-0.5c0-0.3,0-0.6-0.1-0.9c0-0.3,0.1-0.6,0.1-0.9c0,0,0-0.2,0-0.3c0-0.2,0-0.3,0-0.5
	c0-0.2,0-0.3,0-0.5c0-0.3,0-0.6-0.1-0.9c0-0.3,0.1-0.6,0.1-0.9c0,0,0-0.2,0-0.3c0-0.2,0-0.3,0-0.5c0-0.2,0-0.3,0-0.5
	c0-0.3,0-0.6-0.1-0.9c0-0.3,0.1-0.6,0.1-0.9c0,0,0-0.2,0-0.3c0-0.1,0-0.3,0-0.4c0-0.1,0-0.3,0-0.4c0-0.3,0-0.6-0.1-0.9
	c0-0.3,0.1-0.6,0.1-0.9c0,0,0-0.2,0-0.3c0-0.5-0.1-0.9-0.2-1.3c0.1-0.4,0.2-0.9,0.2-1.3c0,0,0-0.2,0-0.3c0-0.5-0.1-0.9-0.2-1.3
	c0.1-0.4,0.2-0.9,0.2-1.3c0,0,0-0.2,0-0.3c0-0.5-0.1-0.9-0.2-1.3c0.1-0.4,0.2-0.9,0.2-1.3c0,0,0-0.2,0-0.3c0-0.5-0.1-0.9-0.2-1.3
	c0.1-0.4,0.2-0.9,0.2-1.3c0,0,0-0.2,0-0.3c0-0.5-0.1-0.9-0.2-1.3c0.1-0.4,0.2-0.9,0.2-1.3c0,0,0-0.2,0-0.3c0-0.5-0.1-0.9-0.2-1.3
	c0.1-0.4,0.2-0.9,0.2-1.3c0,0,0-0.2,0-0.3c0-0.5-0.1-0.9-0.2-1.3c0.1-0.4,0.2-0.9,0.2-1.3c0,0,0-0.2,0-0.3c0-0.5-0.1-0.9-0.2-1.3
	c0.1-0.4,0.2-0.9,0.2-1.3c0,0,0-0.2,0-0.3c0-0.5-0.1-0.9-0.2-1.3c0.1-0.4,0.2-0.9,0.2-1.3c0,0,0-0.2,0-0.3c0-0.5-0.1-0.9-0.2-1.3
	c0.1-0.4,0.2-0.9,0.2-1.3c0,0,0-0.2,0-0.3c0-0.5-0.1-0.9-0.2-1.3c0.1-0.4,0.2-0.9,0.2-1.3c0,0,0-0.2,0-0.3c0-0.5-0.1-0.9-0.2-1.3
	c0.1-0.4,0.2-0.9,0.2-1.3c0,0,0-0.2,0-0.3c0-0.5-0.1-0.9-0.2-1.3c0.1-0.4,0.2-0.9,0.2-1.3c0,0,0-0.2,0-0.3c0-0.5-0.1-0.9-0.2-1.3
	c0.1-0.4,0.2-0.9,0.2-1.3c0,0,0-0.2,0-0.3c0-0.5-0.1-0.9-0.2-1.3c0.1-0.4,0.2-0.9,0.2-1.3c0,0,0-0.2,0-0.3c0-0.5-0.1-0.9-0.2-1.3
	c0.1-0.4,0.2-0.9,0.2-1.3c0,0,0-0.2,0-0.3c0-0.5-0.1-0.9-0.2-1.3c0.1-0.4,0.2-0.9,0.2-1.3c0,0,0-0.2,0-0.3c0-0.5-0.1-0.9-0.2-1.3
	c0.1-0.4,0.2-0.9,0.2-1.3c0,0,0-0.2,0-0.3c0-0.5-0.1-0.9-0.2-1.3c0.1-0.4,0.2-0.9,0.2-1.3c0,0,0-0.2,0-0.3c0-0.5-0.1-0.9-0.2-1.3
	c0.1-0.4,0.2-0.9,0.2-1.3c0,0,0-0.2,0-0.3c0-0.5-0.1-0.9-0.2-1.3c0.1-0.4,0.2-0.9,0.2-1.3c0,0,0-0.2,0-0.3c0-0.5-0.1-0.9-0.2-1.3
	c0.1-0.4,0.2-0.9,0.2-1.3c0,0,0-0.2,0-0.3c0-0.5-0.1-0.9-0.2-1.3c0.1-0.4,0.2-0.9,0.2-1.3c0,0,0-0.2,0-0.3c0-0.5-0.1-0.9-0.2-1.3
	c0.1-0.4,0.2-0.9,0.2-1.3c0,0,0-0.2,0-0.3c0-0.5-0.1-0.9-0.2-1.3c0.1-0.4,0.2-0.9,0.2-1.3c0,0,0-0.2,0-0.3c0-0.5-0.1-0.9-0.2-1.3
	c0.1-0.4,0.2-0.9,0.2-1.3c0,0,0-0.2,0-0.3c0-0.5-0.1-0.9-0.2-1.3c0.1-0.4,0.2-0.9,0.2-1.3c0,0,0-0.2,0-0.3c0-0.5-0.1-0.9-0.2-1.3
	c0.1-0.4,0.2-0.9,0.2-1.3c0,0,0-0.2,0-0.3c0-0.5-0.1-0.9-0.2-1.3c0.1-0.4,0.2-0.9,0.2-1.3c0,0,0-0.2,0-0.3c0-0.5-0.1-0.9-0.2-1.3
	c0.1-0.4,0.2-0.9,0.2-1.3c0,0,0-0.2,0-0.3c0-0.5-0.1-0.9-0.2-1.3c0.1-0.4,0.2-0.9,0.2-1.3c0,0,0-0.2,0-0.3c0-0.5-0.1-0.9-0.2-1.3
	c0.1-0.4,0.2-0.9,0.2-1.3c0,0,0-0.2,0-0.3c0-0.5-0.1-0.9-0.2-1.3c0.1-0.4,0.2-0.9,0.2-1.3c0,0,0-0.2,0-0.3c0-0.5-0.1-0.9-0.2-1.3
	c0.1-0.4,0.2-0.9,0.2-1.3c0,0,0-0.2,0-0.3c0-0.5-0.1-0.9-0.2-1.3c0.1-0.4,0.2-0.9,0.2-1.3c0,0,0-0.2,0-0.3c0-0.5-0.1-0.9-0.2-1.3
	c0.1-0.4,0.2-0.9,0.2-1.3c0,0,0-0.2,0-0.3c0-0.5-0.1-0.9-0.2-1.3c0.1-0.4,0.2-0.9,0.2-1.3c0,0,0-0.2,0-0.3c0-0.5-0.1-0.9-0.2-1.3
	c0.1-0.4,0.2-0.9,0.2-1.3c0,0,0-0.2,0-0.3c0-0.5-0.1-0.9-0.2-1.3c0.1-0.4,0.2-0.9,0.2-1.3c0,0,0-0.2,0-0.3c0-0.5-0.1-0.9-0.2-1.3
	c0.1-0.4,0.2-0.9,0.2-1.3c0,0,0-0.2,0-0.3c0-0.5-0.1-0.9-0.2-1.3c0.1-0.4,0.2-0.9,0.2-1.3c0,0,0-0.2,0-0.3c0-0.5-0.1-0.9-0.2-1.3
	c0.1-0.4,0.2-0.9,0.2-1.3c0,0,0-0.2,0-0.3c0-0.5-0.1-0.9-0.2-1.3c0.1-0.4,0.2-0.9,0.2-1.3c0,0,0-0.2,0-0.3c0-0.5-0.1-0.9-0.2-1.3
	c0.1-0.4,0.2-0.9,0.2-1.3c0,0,0-0.2,0-0.3c0-0.5-0.1-0.9-0.2-1.3c0.1-0.4,0.2-0.9,0.2-1.3c0,0,0-0.2,0-0.3c0-0.5-0.1-0.9-0.2-1.3
	c0.1-0.4,0.2-0.9,0.2-1.3c0,0,0-0.2,0-0.3c0-0.5-0.1-0.9-0.2-1.3c0.1-0.4,0.2-0.9,0.2-1.3c0,0,0-0.2,0-0.3c0-0.5-0.1-0.9-0.2-1.3
	c0.1-0.4,0.2-0.9,0.2-1.3c0,0,0-0.2,0-0.3c0-0.5-0.1-0.9-0.2-1.3c0.1-0.4,0.2-0.9,0.2-1.3c0,0,0-0.2,0-0.3c0-0.5-0.1-0.9-0.2-1.3
	c0.1-0.4,0.2-0.9,0.2-1.3c0,0,0-0.2,0-0.3c0-0.5-0.1-0.9-0.2-1.3c0.1-0.4,0.2-0.9,0.2-1.3c0,0,0-0.2,0-0.3c0-0.5-0.1-0.9-0.2-1.3
	c0.1-0.4,0.2-0.9,0.2-1.3c0,0,0-0.2,0-0.3c0-0.5-0.1-0.9-0.2-1.3c0.1-0.4,0.2-0.9,0.2-1.3c0,0,0-0.2,0-0.3c0-0.5-0.1-0.9-0.2-1.3
	c0.1-0.4,0.2-0.9,0.2-1.3c0,0,0-0.2,0-0.3c0-0.5-0.1-0.9-0.2-1.3c0.1-0.4,0.2-0.9,0.2-1.3c0,0,0-0.2,0-0.3c0-0.5-0.1-0.9-0.2-1.3
	c0.1-0.4,0.2-0.9,0.2-1.3c0,0,0-0.2,0-0.3c0-0.5-0.1-0.9-0.2-1.3c0.1-0.4,0.2-0.9,0.2-1.3c0,0,0-0.2,0-0.3c0-0.5-0.1-0.9-0.2-1.3
	c0.1-0.4,0.2-0.9,0.2-1.3c0-0.1,0-0.2,0-0.2c0-0.1,0-0.2,0-0.2c0-0.4,0-0.8-0.1-1.2c0.1-0.4,0.1-0.8,0.1-1.2c0-0.5-0.1-1-0.2-1.5
	c0.1-0.5,0.2-1,0.2-1.5c0-0.5-0.1-1-0.2-1.5c0.1-0.5,0.2-1,0.2-1.5s-0.1-1-0.2-1.5c0.1-0.5,0.2-1,0.2-1.5c0-0.5-0.1-1-0.2-1.5
	c0.1-0.5,0.2-1,0.2-1.5c0-0.5-0.1-1-0.2-1.5c0.1-0.5,0.2-1,0.2-1.5c0-0.5-0.1-1-0.2-1.5c0.1-0.5,0.2-1,0.2-1.5c0-0.5-0.1-1-0.2-1.5
	c0.1-0.5,0.2-1,0.2-1.5c0-0.5-0.1-1-0.2-1.5c0.1-0.5,0.2-1,0.2-1.5c0-0.5-0.1-1-0.2-1.5c0.1-0.5,0.2-1,0.2-1.5c0-0.5-0.1-1-0.2-1.5
	c0.1-0.5,0.2-1,0.2-1.5c0-0.5-0.1-1-0.2-1.5c0.1-0.5,0.2-1,0.2-1.5s-0.1-1-0.2-1.5c0.1-0.5,0.2-1,0.2-1.5c0-0.5-0.1-1-0.2-1.5
	c0.1-0.5,0.2-1,0.2-1.5c0-0.5-0.1-1-0.2-1.5c0.1-0.5,0.2-1,0.2-1.5c0-0.5-0.1-1-0.2-1.5c0.1-0.5,0.2-1,0.2-1.5c0-0.5-0.1-1-0.2-1.5
	c0.1-0.5,0.2-1,0.2-1.5c0-0.5-0.1-1-0.2-1.5c0.1-0.5,0.2-1,0.2-1.5c0-0.5-0.1-1-0.2-1.5c0.1-0.5,0.2-1,0.2-1.5c0-0.5-0.1-1-0.2-1.5
	c0.1-0.5,0.2-1,0.2-1.5c0-0.5-0.1-1-0.2-1.5c0.1-0.5,0.2-1,0.2-1.5s-0.1-1-0.2-1.5c0.1-0.5,0.2-1,0.2-1.5c0-0.5-0.1-1-0.2-1.5
	c0.1-0.5,0.2-1,0.2-1.5c0-0.5-0.1-1-0.2-1.5c0.1-0.5,0.2-1,0.2-1.5c0-0.5-0.1-1-0.2-1.5c0.1-0.5,0.2-1,0.2-1.5c0-0.5-0.1-1-0.2-1.5
	c0.1-0.5,0.2-1,0.2-1.5c0-0.5-0.1-1-0.2-1.5c0.1-0.5,0.2-1,0.2-1.5c0-0.5-0.1-1-0.2-1.5c0.1-0.5,0.2-1,0.2-1.5c0-0.5-0.1-1-0.2-1.5
	c0.1-0.5,0.2-1,0.2-1.5c0-0.5-0.1-1-0.2-1.5c0.1-0.5,0.2-1,0.2-1.5s-0.1-1-0.2-1.5c0.1-0.5,0.2-1,0.2-1.5c0-0.5-0.1-1-0.2-1.5
	c0.1-0.5,0.2-1,0.2-1.5c0-0.5-0.1-1-0.2-1.5c0.1-0.5,0.2-1,0.2-1.5c0-0.5-0.1-1-0.2-1.5c0.1-0.5,0.2-1,0.2-1.5c0-0.5-0.1-1-0.2-1.5
	c0.1-0.5,0.2-1,0.2-1.5c0-0.5-0.1-1-0.2-1.5c0.1-0.5,0.2-1,0.2-1.5c0-0.5-0.1-1-0.2-1.5c0.1-0.5,0.2-1,0.2-1.5c0-0.5-0.1-1-0.2-1.5
	c0.1-0.5,0.2-1,0.2-1.5c0-0.5-0.1-1-0.2-1.5c0.1-0.5,0.2-1,0.2-1.5s-0.1-1-0.2-1.5c0.1-0.5,0.2-1,0.2-1.5c0-0.5-0.1-1-0.2-1.5
	c0.1-0.5,0.2-1,0.2-1.5c0-0.5-0.1-1-0.2-1.5c0.1-0.5,0.2-1,0.2-1.5c0-0.5-0.1-1-0.2-1.5c0.1-0.5,0.2-1,0.2-1.5c0-0.5-0.1-1-0.2-1.5
	c0.1-0.5,0.2-1,0.2-1.5c0-0.5-0.1-1-0.2-1.5c0.1-0.5,0.2-1,0.2-1.5c0-0.5-0.1-1-0.2-1.5c0.1-0.5,0.2-1,0.2-1.5c0-0.5-0.1-1-0.2-1.5
	c0.1-0.5,0.2-1,0.2-1.5c0-0.5-0.1-1-0.2-1.5c0.1-0.5,0.2-1,0.2-1.5s-0.1-1-0.2-1.5c0.1-0.5,0.2-1,0.2-1.5c0-0.5-0.1-1-0.2-1.5
	c0.1-0.5,0.2-1,0.2-1.5c0-0.5-0.1-1-0.2-1.5c0.1-0.5,0.2-1,0.2-1.5c0-0.5-0.1-1-0.2-1.5c0.1-0.5,0.2-1,0.2-1.5c0-0.5-0.1-1-0.2-1.5
	c0.1-0.5,0.2-1,0.2-1.5c0-0.5-0.1-1-0.2-1.5c0.1-0.5,0.2-1,0.2-1.5c0-0.5-0.1-1-0.2-1.5c0.1-0.5,0.2-1,0.2-1.5c0-0.5-0.1-1-0.2-1.5
	c0.1-0.5,0.2-1,0.2-1.5c0-0.5-0.1-1-0.2-1.5c0.1-0.5,0.2-1,0.2-1.5s-0.1-1-0.2-1.5c0.1-0.5,0.2-1,0.2-1.5c0-0.5-0.1-1-0.2-1.5
	c0.1-0.5,0.2-1,0.2-1.5c0-0.5-0.1-1-0.2-1.5c0.1-0.5,0.2-1,0.2-1.5c0-0.5-0.1-1-0.2-1.5c0.1-0.5,0.2-1,0.2-1.5c0-0.5-0.1-1-0.2-1.5
	c0.1-0.5,0.2-1,0.2-1.5c0-0.5-0.1-1-0.2-1.5c0.1-0.5,0.2-1,0.2-1.5c0-0.5-0.1-1-0.2-1.5c0.1-0.5,0.2-1,0.2-1.5c0-0.5-0.1-1-0.2-1.5
	c0.1-0.5,0.2-1,0.2-1.5c0-0.5-0.1-1-0.2-1.5c0.1-0.5,0.2-1,0.2-1.5s-0.1-1-0.2-1.5c0.1-0.5,0.2-1,0.2-1.5c0-0.5-0.1-1-0.2-1.5
	c0.1-0.5,0.2-1,0.2-1.5c0-0.5-0.1-1-0.2-1.5c0.1-0.5,0.2-1,0.2-1.5c0-0.5-0.1-1-0.2-1.5c0.1-0.5,0.2-1,0.2-1.5c0-0.5-0.1-1-0.2-1.5
	c0.1-0.5,0.2-1,0.2-1.5c0-0.6-0.1-1.2-0.2-1.7c0.2-0.5,0.2-1.1,0.2-1.7c0-3.3-2.7-6-6-6h-5.9c-3.3,0-6,2.7-6,6
	c0,0.6,0.1,1.2,0.2,1.7c-0.2,0.5-0.2,1.1-0.2,1.7c0,0.5,0.1,1,0.2,1.5c-0.1,0.5-0.2,1-0.2,1.5c0,0.5,0.1,1,0.2,1.5
	c-0.1,0.5-0.2,1-0.2,1.5c0,0.2,0,0.4,0,0.6h-0.5c-3.3,0-6,2.7-6,6c0,0.8,0.2,1.6,0.5,2.3c-0.3,0.7-0.5,1.5-0.5,2.3
	c0,0.5,0.1,1,0.2,1.5c-0.1,0.5-0.2,1-0.2,1.5c0,0.5,0.1,1,0.2,1.5c-0.1,0.5-0.2,1-0.2,1.5c0,0.5,0.1,1,0.2,1.5
	c-0.1,0.5-0.2,1-0.2,1.5c0,0.5,0.1,1,0.2,1.5c-0.1,0.5-0.2,1-0.2,1.5c0,0.5,0.1,1,0.2,1.5c-0.1,0.5-0.2,1-0.2,1.5s0.1,1,0.2,1.5
	c-0.1,0.5-0.2,1-0.2,1.5c0,0.5,0.1,1,0.2,1.5c-0.1,0.5-0.2,1-0.2,1.5s0.1,1,0.2,1.5c-0.1,0.5-0.2,1-0.2,1.5c0,0.5,0.1,1,0.2,1.5
	c-0.1,0.5-0.2,1-0.2,1.5s0.1,1,0.2,1.5c-0.1,0.5-0.2,1-0.2,1.5c0,0.5,0.1,1,0.2,1.5c-0.1,0.3-0.1,0.5-0.1,0.8h-0.5c-3.3,0-6,2.7-6,6
	c0,0.7,0.1,1.4,0.4,2.1c-0.2,0.6-0.4,1.3-0.4,2.1c0,0.5,0.1,1,0.2,1.5c-0.1,0.5-0.2,1-0.2,1.5c0,0.5,0.1,1,0.2,1.5
	c-0.1,0.5-0.2,1-0.2,1.5c0,0.5,0.1,1,0.2,1.5c-0.1,0.5-0.2,1-0.2,1.5c0,0.5,0.1,1,0.2,1.5c-0.1,0.5-0.2,1-0.2,1.5
	c0,0.5,0.1,1,0.2,1.5c-0.1,0.5-0.2,1-0.2,1.5c0,0.5,0.1,1,0.2,1.5c-0.1,0.5-0.2,1-0.2,1.5c0,0.1,0,0.3,0,0.4h-0.5c-3.3,0-6,2.7-6,6
	c0,0.8,0.2,1.5,0.4,2.2c-0.3,0.7-0.4,1.4-0.4,2.2c0,0.5,0.1,1,0.2,1.5c-0.1,0.5-0.2,1-0.2,1.5c0,0.5,0.1,1,0.2,1.5
	c-0.1,0.5-0.2,1-0.2,1.5c0,0.5,0.1,1,0.2,1.5c-0.1,0.5-0.2,1-0.2,1.5c0,0.5,0.1,1,0.2,1.5c0,0.1-0.1,0.3-0.1,0.4h-0.5
	c-3.3,0-6,2.7-6,6c0,0.7,0.1,1.4,0.4,2.1c-0.2,0.4-0.3,0.9-0.3,1.3h-0.5c-3.3,0-6,2.7-6,6c0,0.6,0.1,1.3,0.3,1.8
	c-0.2,0.6-0.3,1.2-0.3,1.8c0,0.5,0.1,1,0.2,1.5c-0.1,0.5-0.2,1-0.2,1.5c0,0.5,0.1,1,0.2,1.5c-0.1,0.5-0.2,1-0.2,1.5
	c0,0.5,0.1,1,0.2,1.5c-0.1,0.5-0.2,1-0.2,1.5c0,0.5,0.1,1,0.2,1.5c-0.1,0.5-0.2,1-0.2,1.5c0,0.5,0.1,1,0.2,1.5
	c-0.1,0.4-0.2,0.8-0.2,1.2h-0.5c-3.3,0-6,2.7-6,6c0,0.4,0,0.9,0.1,1.3c-0.1,0.4-0.1,0.8-0.1,1.3c0,0.5,0.1,1,0.2,1.5
	c-0.1,0.5-0.2,1-0.2,1.5c0,0.5,0.1,1,0.2,1.5c-0.1,0.5-0.2,1-0.2,1.5c0,0.5,0.1,1,0.2,1.5c-0.1,0.5-0.2,1-0.2,1.5
	c0,0.5,0.1,1,0.2,1.5c-0.1,0.5-0.2,1-0.2,1.5s0.1,1,0.2,1.5c-0.1,0.5-0.2,1-0.2,1.5c0,0.5,0.1,1,0.2,1.5c-0.1,0.5-0.2,1-0.2,1.5
	c0,0.5,0.1,1,0.2,1.5c-0.1,0.4-0.2,0.8-0.2,1.2h-0.5c-3.3,0-6,2.7-6,6c0,0.4,0,0.7,0.1,1h-0.5c-2.9,0-5.3,2-5.9,4.7h-0.6
	c-1.1,0-2.2,0.3-3.1,0.9c-1.1-0.9-2.4-1.5-3.9-1.5h-5.9c-0.1,0-0.2,0-0.3,0c-0.1,0-0.2,0-0.3,0h-5.9c-3.3,0-6,2.7-6,6
	c0,0.6,0.1,1.1,0.2,1.6c-0.1,0.2-0.1,0.4-0.1,0.6h-0.5c-1.7,0-3.2,0.7-4.3,1.8c-0.8-0.4-1.8-0.7-2.7-0.7h-5.9c-3.3,0-6,2.7-6,6
	c0,0.7,0.1,1.4,0.3,2c-0.2,0.4-0.3,0.9-0.3,1.4h-0.5c-3.3,0-6,2.7-6,6c0,0.5,0.1,1,0.2,1.5c-0.1,0.4-0.2,0.9-0.2,1.4h-0.5
	c-2.2,0-4.1,1.2-5.2,3h-1.3c-2.4,0-4.5,1.5-5.5,3.5h-1c-3.1,0-5.6,2.3-6,5.3h-0.5c-1.9,0-3.6,0.9-4.7,2.3c-0.7-0.3-1.5-0.5-2.4-0.5
	h-1.7c-1.1-1.4-2.8-2.4-4.8-2.4h-5.9c-1.9,0-3.7,0.9-4.8,2.4h-1.7c-3.3,0-6,2.7-6,6c0,0.6,0.1,1.3,0.3,1.8c-0.2,0.6-0.3,1.2-0.3,1.8
	c0,0.3,0,0.6,0.1,0.9h-0.5c-3.1,0-5.7,2.4-6,5.4c-0.3-0.1-0.7-0.1-1.1-0.1h-5.9c-1.3,0-2.6,0.4-3.6,1.2h-2.9c-3.3,0-6,2.7-6,6
	c0,1,0.2,1.9,0.7,2.8c-0.2,0.4-0.4,0.9-0.5,1.4c-0.4-0.1-0.8-0.1-1.2-0.1h-0.5c0,0,0-0.1,0-0.1c0-0.5-0.1-1-0.2-1.5
	c0.1-0.5,0.2-1,0.2-1.5c0-0.5-0.1-0.9-0.2-1.4c0.1-0.4,0.2-0.9,0.2-1.4c0-3.3-2.7-6-6-6h-0.8c-0.8-2.4-3.1-4.1-5.7-4.1h-0.6
	c0.1-0.4,0.1-0.7,0.1-1.1c0-0.6-0.1-1.2-0.3-1.7c0.2-0.5,0.3-1.1,0.3-1.7c0-3.3-2.7-6-6-6h-5.9c-1.7,0-3.2,0.7-4.3,1.8h-2.2
	c-0.1,0-0.2,0-0.3,0c-0.1,0-0.2,0-0.3,0h-5.9c-3.3,0-6,2.7-6,6c0,1,0.2,1.9,0.7,2.7c-0.2,0.4-0.4,0.8-0.5,1.2h-0.6
	c-2.9,0-5.4,2.1-5.9,4.8c-0.4-0.1-0.8-0.1-1.2-0.1h-0.9c0.3-0.7,0.4-1.4,0.4-2.2c0-3.3-2.7-6-6-6h-5.9c-3.3,0-6,2.7-6,6
	c0,0.8,0.2,1.6,0.5,2.3c-0.1,0.4-0.3,0.7-0.3,1.1h-0.6c-3.3,0-6,2.7-6,6c0,0.5,0.1,1,0.2,1.4c-0.1,0.5-0.2,0.9-0.2,1.4
	c0,0.5,0.1,1,0.2,1.5c-0.1,0.5-0.2,0.9-0.2,1.4h-0.4c-0.9,0-1.8,0.2-2.6,0.6h-3.9c-3.3,0-6,2.7-6,6c0,1.2,0.3,2.3,0.9,3.2
	c-0.6,0.9-0.9,2-0.9,3.2c0,0.5,0.1,1,0.2,1.5c-0.1,0.5-0.2,1-0.2,1.5c0,0.4,0,0.7,0.1,1.1h-0.6c-3.3,0-6,2.7-6,6
	c0,0.6,0.1,1.2,0.3,1.8c-0.2,0.6-0.3,1.2-0.3,1.8c0,0.1,0,0.3,0,0.4h-0.5c-3.3,0-6,2.7-6,6c0,0.4,0,0.7,0.1,1h-0.5
	c-3.3,0-6,2.6-6,5.9h-0.5c-3.3,0-6,2.7-6,6c0,0.7,0.1,1.4,0.4,2.1c-0.1,0.2-0.2,0.5-0.2,0.7h-0.6c-3.3,0-6,2.6-6,5.9h-0.5
	c-3.3,0-6,2.7-6,6c0,0.6,0.1,1.1,0.2,1.6h-0.7c-3.3,0-6,2.7-6,6c0,0.2,0,0.3,0,0.4h-0.5c-3.3,0-6,2.6-6,5.9h-0.5c-0.1,0-0.2,0-0.3,0
	c-0.1,0-0.2,0-0.3,0h-5.9c-1.9,0-3.7,0.9-4.8,2.4h-1.7c-1.9,0-3.6,0.9-4.7,2.3c-0.7-0.3-1.5-0.5-2.4-0.5h-1.7
	c-1.1-1.4-2.8-2.4-4.8-2.4h-5.9c-3.3,0-6,2.7-6,6c0,0.2,0,0.3,0,0.4h-0.5c-3.3,0-6,2.7-6,6c-0.3-0.1-0.7-0.1-1-0.1h-5.9
	c-1,0-1.9,0.2-2.7,0.7c-1.1-1.1-2.6-1.8-4.3-1.8h-5.9c-3.1,0-5.6,2.3-6,5.3h-0.5c-0.4,0-0.9,0.1-1.3,0.1c-0.8-2.5-3.1-4.3-5.8-4.3
	h-5.9c-2.9,0-5.3,2-5.9,4.7h-0.6c-3.1,0-5.7,2.4-6,5.4c-0.3-0.1-0.7-0.1-1.1-0.1h-1c-1-2.1-3.1-3.5-5.5-3.5h-5.9c-3.3,0-6,2.7-6,6
	c0,0.8,0.2,1.5,0.4,2.2h-0.9c-2.4,0-4.5,1.5-5.5,3.5h-1c-3.3,0-6,2.7-6,6c0,1,0.3,2,0.7,2.8h-1.1c-3.3,0-6,2.7-6,6
	c0,0.3,0,0.7,0.1,1c-0.1,0.3-0.1,0.7-0.1,1c0,0.1,0,0.1,0,0.2h-0.5c-3.3,0-6,2.7-6,6c0,0.5,0.1,1,0.2,1.5c-0.1,0.5-0.2,1-0.2,1.5
	c0,0.5,0.1,1,0.2,1.5c-0.1,0.2-0.1,0.4-0.1,0.6h-0.5c-0.5,0-1.1,0.1-1.6,0.2c0.3-0.7,0.5-1.6,0.5-2.4c0-3.3-2.7-6-6-6h-5.9
	c-3.1,0-5.6,2.3-6,5.3h-0.5c-3.3,0-6,2.7-6,6c0,0.6,0.1,1.1,0.2,1.7c-0.2,0.5-0.2,1.1-0.2,1.7c0,0.4,0,0.8,0.1,1.2h-0.6
	c-2.2,0-4.1,1.2-5.2,3h-1.3c-3.1,0-5.6,2.3-6,5.3h-0.5c-0.4,0-0.9,0.1-1.3,0.1c0.2-0.6,0.3-1.2,0.3-1.8c0-3.3-2.7-6-6-6h-0.5
	c0-0.1,0-0.3,0-0.4c0-1.5-0.5-2.8-1.4-3.8c0.9-1,1.4-2.4,1.4-3.8c0-3.3-2.7-6-6-6h-0.5c0-0.6-0.1-1.1-0.3-1.7
	c0.2-0.6,0.3-1.1,0.3-1.7c0-3.3-2.7-6-6-6h-5.9c-3.3,0-6,2.7-6,6c-0.3-0.1-0.7-0.1-1-0.1h-1.7c-1.1-1.4-2.8-2.4-4.8-2.4h-5.9
	c-3.3,0-6,2.7-6,6c0,0.4,0,0.7,0.1,1h-0.5c-0.4,0-0.8,0-1.2,0.1c0.1-0.4,0.1-0.8,0.1-1.2c0-3.3-2.7-6-6-6h-5.9c-3.3,0-6,2.7-6,6
	c0,0.5,0.1,1,0.2,1.5c-0.1,0.5-0.2,1-0.2,1.5c0,0.5,0.1,1,0.2,1.5c-0.1,0.5-0.2,1-0.2,1.5c0,0.5,0.1,1,0.2,1.5
	c-0.1,0.5-0.2,1-0.2,1.5s0.1,1,0.2,1.5c-0.1,0.5-0.2,1-0.2,1.5s0.1,1,0.2,1.5c-0.1,0.5-0.2,1-0.2,1.5c0,0.5,0.1,1,0.2,1.5
	c-0.1,0.3-0.1,0.6-0.2,0.9c-0.3-0.1-0.7-0.1-1.1-0.1h-0.5c0-0.2,0-0.4,0-0.6c0-0.5-0.1-1-0.2-1.5c0.1-0.5,0.2-1,0.2-1.5
	c0-1.3-0.4-2.5-1.1-3.5c0.7-1,1.1-2.2,1.1-3.5c0-3.3-2.7-6-6-6h-5.9c-1.5,0-2.9,0.6-3.9,1.5c-0.9-0.6-2-0.9-3.1-0.9h-5.9
	c-2.7,0-4.9,1.7-5.7,4.1h-0.8c-3.3,0-6,2.7-6,6c0,0.2,0,0.3,0,0.4h-0.5c-3.3,0-6,2.7-6,6c0,0.4,0,0.7,0.1,1h-0.5
	c-0.7,0-1.4,0.1-2,0.4c-1.1-1.6-2.9-2.7-5-2.7h-5.9c-3.1,0-5.6,2.3-6,5.3h-0.5c-2.3,0-4.3,1.3-5.3,3.2c-0.6-0.2-1.1-0.3-1.7-0.3
	h-5.9c-3.1,0-5.6,2.3-6,5.3h-0.5c-0.8,0-1.6,0.2-2.4,0.5c-1.1-1.4-2.8-2.3-4.7-2.3h-5.9c-3.3,0-6,2.7-6,6c0,0.9,0.2,1.8,0.6,2.6
	c-0.1,0.3-0.2,0.5-0.3,0.8h-0.7c-1.3,0-2.6,0.4-3.6,1.2h-2.9c-2.9,0-5.4,2.1-5.9,4.8c-0.4-0.1-0.8-0.1-1.2-0.1h-5.9
	c-3.3,0-6,2.7-6,6c0,0.4,0,0.7,0.1,1h-0.5c-1.9,0-3.7,0.9-4.8,2.4h-1.7c-1.9,0-3.7,0.9-4.8,2.4h-1.7c-1.9,0-3.7,0.9-4.8,2.4h-1.7
	c-2.4,0-4.5,1.5-5.5,3.5h-1c-1.9,0-3.7,0.9-4.8,2.4h-1.7c-1.7,0-3.2,0.7-4.3,1.8h-0.2c-0.8-0.4-1.7-0.6-2.6-0.6h-5.9
	c-1.7,0-3.2,0.7-4.3,1.8h-2.2c-0.9,0-1.8,0.2-2.6,0.6h-0.9c-1-0.7-2.2-1.2-3.6-1.2h-5.9c-1.3,0-2.6,0.4-3.6,1.2h-2.9
	c-1.9,0-3.7,0.9-4.8,2.4h-1.7c-1.8,0-3.5,0.8-4.6,2.1h-1.9v0.2c-0.2,0-0.4,0-0.6,0h-5.9c-1.3,0-2.6,0.4-3.6,1.2h-2.9
	c-1.2,0-2.3,0.4-3.3,1h-3.2v1.4c-0.2,0-0.4,0-0.6,0v-2h-5.9v2c-0.2,0-0.4,0-0.6,0v-2h-5.9v2c-0.2,0-0.4,0-0.6,0v-2h-5.9v2.6
	c-0.1,0-0.2,0-0.3,0c-0.1,0-0.2,0-0.3,0v-2h-5.9v2c-0.2,0-0.4,0-0.6,0v-2h-5.9v3.5v0.3c-0.2,0-0.4,0-0.6,0v-0.2v-3h-5.9v3v1.3
	c-0.2,0-0.4,0-0.6,0v-3.8h-5.9v5.5c-0.2,0-0.4,0-0.6,0v-1v-3.4h-5.9v3.4v1.6c-0.2,0-0.4,0-0.6,0v-1.5v-3.4h-5.9v3.4v1.5
	c-0.2,0-0.4,0-0.6,0V410v-3.9h-5.9v3.9v1.6c-0.1,0-0.2,0-0.3,0c-0.1,0-0.2,0-0.3,0V411v-6.1h-5.9v6.1v0.6c-0.2,0-0.4,0-0.6,0v-2.1
	v-2.3h-5.9v2.3v1.5c-0.2,0-0.4,0-0.6,0v-1.1v-3.9h-5.9v3.9v1.1c-0.2,0-0.4,0-0.6,0v-1.2v-3.2h-5.9v3.2v3v1.1c-0.2,0-0.4,0-0.6,0V413
	v-3v-2.8h-5.9v2.8v3v0.3c-0.2,0-0.4,0-0.6,0v-1.2V409h-5.9v3.1v1.2c-0.1,0-0.2,0-0.3,0c-0.1,0-0.2,0-0.3,0v-5.5h-5.9v5.5
	c-0.2,0-0.4,0-0.6,0v-0.6V409h-5.9v3.8v2.1v0.2c-0.2,0-0.4,0-0.6,0v-2.2v-4.5h-5.9v4.5v2.2c-0.2,0-0.4,0-0.6,0v-1.6v-5.1h-5.9v5.1
	v1.6c-0.2,0-0.4,0-0.6,0v-0.2v-2.7v-2.6h-5.9v2.6v2.7v0.3v0.5c-0.1,0-0.2,0-0.3,0c-0.1,0-0.2,0-0.3,0v-2.4V409h-5.9v4.3v2.4
	c-0.2,0-0.4,0-0.6,0v-2.4v-3.2h-5.9v3.2v2.9c-0.2,0-0.4,0-0.6,0v-6.1H719v6.5v0.2v0.1c-0.2,0-0.4,0-0.6,0v-0.2v-0.9v-3v-2h-5.9v2v3
	v0.9v0.2c-0.1,0-0.2,0-0.3,0c-0.1,0-0.2,0-0.3,0v-0.3v-6.4H706v6.4v0.3c-0.2,0-0.4,0-0.6,0v-1.4v-2.9h-5.9v2.9v1.4
	c-0.2,0-0.4,0-0.6,0v-0.6V412H693v4.4v0.6c-0.1,0-0.2,0-0.3,0c-0.1,0-0.2,0-0.3,0v-0.5V412h-5.9v4.4c-0.2,0-0.4,0-0.6,0v-4.9H680
	v4.9c-0.2,0-0.4,0-0.6,0V416v-3.4h-5.9v3.4v0.9c-0.2,0-0.4,0-0.6,0v-0.3V412H667v4.6v0.3c-0.2,0-0.4,0-0.6,0v-2.6h-5.9v2.6
	c-0.1,0-0.2,0-0.3,0c-0.1,0-0.2,0-0.3,0v-0.7v-3.1H654v3.1v0.7c-3.3,0-6,2.7-6,6c0,0.3,0,0.6,0.1,0.9c0,0.3-0.1,0.6-0.1,0.9
	c0,3.3,2.7,6,6,6v0.2h4.4c0.7,0.2,1.4,0.4,2.1,0.4v0.2h5.9v-0.2c0.7,0,1.4-0.1,2.1-0.4h1.7c0.9,0.6,2.1,1,3.3,1h5.9
	c1,0,2-0.3,2.9-0.7h3.6V431v-0.2h0.6v0.8h5.9v-0.8h7.1v0.2h5.9v-0.2h0.6v0.1v0.1h5.9v-0.1v-0.1h0.6v0.2h5.9v-0.2h0.6v0.2v0.2h5
	c0.5,0.1,1,0.2,1.5,0.2h5.9c0.1,0,0.2,0,0.3,0c0.1,0,0.2,0,0.3,0h5.9c0.2,0,0.4,0,0.6,0v0.2h4.4c0.7,0.2,1.4,0.4,2.1,0.4h5.9
	c0.7,0,1.4-0.1,2.1-0.4h4.4v-0.2c0.2,0,0.4,0,0.6,0h5.4c0.4,0.1,0.7,0.1,1.1,0.1v0.1h5.9v-0.1c0.2,0,0.4,0.1,0.6,0.1h5.9
	c0.6,0,1.2-0.1,1.7-0.3h4.7c0.2,0,0.5,0,0.7,0h4c0.7,0.3,1.6,0.5,2.4,0.5h5.9c0.9,0,1.7-0.2,2.4-0.5h4c0.5,0,0.9-0.1,1.4-0.2h3.6
	c0.7,0.3,1.4,0.4,2.2,0.4h5.9c0.4,0,0.8-0.1,1.2-0.1h5.3v-0.1c0.1,0,0.2,0,0.3,0c0.1,0,0.2,0,0.3,0h5.9c0.2,0,0.4,0,0.6,0v0.8h5.9
	v-1c0.2,0,0.4,0.1,0.6,0.1h4.5c0.6,0.2,1.3,0.3,2,0.3h4.2c0.7,0.3,1.5,0.4,2.3,0.4h5.9c0.9,0,1.8-0.2,2.6-0.6h3.9
	c0.7,0,1.4-0.1,2.1-0.4h4.4v-0.2l0.6,0v0.2h5.9v-0.2h0.6v0.1v0.1h4.9c0.5,0.1,1,0.2,1.6,0.2v0.1h5.5c0.3,0.1,0.7,0.1,1,0.1h5.9
	c0.6,0,1.1-0.1,1.6-0.2h4.9V431v-0.2h0.6v0.2v0.4h5.9V431v0c0.2,0,0.4,0,0.6,0v0.1h4.8c0.5,0.2,1.1,0.3,1.7,0.3h5.9
	c0.9,0,1.8-0.2,2.6-0.6h0.9c1,0.7,2.2,1.1,3.5,1.1h5.9c0.5,0,1.1-0.1,1.6-0.2h4.9v-0.4c0.2,0,0.4,0,0.6,0h5.9c0.5,0,1.1-0.1,1.6-0.2
	h3.9c0.5,0.1,1,0.2,1.6,0.2h5.9c0.7,0,1.4-0.1,2.1-0.4h3.7c0.4,0.1,0.8,0.2,1.3,0.2h5.9c0.2,0,0.4,0,0.6-0.1v0.1h5.9V431v-0.2h0.6
	v0.1v0.1v0.5h4.1c0.7,0.3,1.6,0.5,2.4,0.5h5.9c1.2,0,2.4-0.4,3.3-1h1.6c0.7,0.3,1.4,0.4,2.1,0.4h5.9c0.9,0,1.7-0.2,2.5-0.5h2.5
	c0.7,0.3,1.4,0.4,2.2,0.4h5.9c0.5,0,1.1-0.1,1.6-0.2h4.2c0.4,0.1,0.9,0.2,1.3,0.2h5.9c0.5,0,1-0.1,1.5-0.2h2.5
	c0.9,0.5,2,0.9,3.1,0.9h5.9c1.2,0,2.2-0.3,3.1-0.9h1.8c0.7,0.3,1.4,0.4,2.1,0.4v0.2h5.9v-0.1c0.2,0,0.4,0,0.6,0h4.3
	c0.7,0.3,1.4,0.4,2.2,0.4h5.9c0.5,0,0.9-0.1,1.4-0.2h4.9c0.3,0,0.5,0.1,0.8,0.1h5.9c1.1,0,2.1-0.3,3-0.8h1.9
	c0.7,0.3,1.4,0.4,2.2,0.4h4.4c0.7,0.2,1.4,0.4,2.1,0.4h5.9c0.9,0,1.8-0.2,2.5-0.6h4c0.2,0,0.4,0,0.6,0v0.2h5.9v-0.7h0.6v0.9h5.9
	v-0.4c0.2,0,0.4,0,0.6,0h5.9c0.7,0,1.4-0.1,2-0.3h4.5c0.5,0,0.9-0.1,1.4-0.2h4.2c0.5,0.1,1,0.2,1.5,0.2h5.9c0.2,0,0.4,0,0.6,0v0v0v0
	h5.9v0v0c0.2,0,0.4,0,0.6,0v0.2v0.1h3.9c0.8,0.4,1.7,0.6,2.6,0.6h5.9c1,0,2-0.3,2.9-0.7h3.4c0.3,0,0.5,0.1,0.8,0.1h5.9
	c0.6,0,1.3-0.1,1.8-0.3h3c0.7,0.3,1.5,0.4,2.3,0.4h5.1c0.5,0.1,0.9,0.2,1.4,0.2h5.9c1,0,1.9-0.2,2.7-0.6h1.5
	c0.9,0.5,1.8,0.7,2.9,0.7h5.9c0.8,0,1.6-0.2,2.3-0.5h4.2V431c0.2,0,0.4,0,0.6,0v0.2h3.1c1,0.6,2.1,1,3.4,1h5.9
	c0.6,0,1.1-0.1,1.7-0.2h4.8v-0.5c0.2,0,0.4,0,0.6,0h5.9c0.4,0,0.8,0,1.2-0.1h2.7c0.9,0.6,2,0.9,3.2,0.9h5.9c1.1,0,2.1-0.3,3-0.8h3.5
	c1.1,0,2.1-0.3,3-0.8h3.5c0.3,0,0.6,0,0.9-0.1h3.1c0.9,0.5,1.9,0.8,3,0.8h5.9c0.2,0,0.3,0,0.5,0c0,0,4.8,0,4.8,0
	c0.6,0.2,1.2,0.3,1.8,0.3h5.9c0.4,0,0.9-0.1,1.3-0.2h5.2v-0.1c1,0,1.9-0.2,2.7-0.7h2.6c0.5,0.2,1.1,0.2,1.7,0.2v0.3v0h3.8
	c0.8,0.4,1.8,0.7,2.7,0.7h5.9c0.9,0,1.7-0.2,2.4-0.5h2.8c0.6,0.2,1.2,0.3,1.9,0.3h5.9c1,0,1.9-0.3,2.8-0.7h3.7v-0.1
	c0.2,0,0.4,0,0.6,0v0h4.7c0.6,0.2,1.2,0.3,1.8,0.3h5.9c0.3,0,0.5,0,0.8,0h5.7v-0.4v0c0.2,0,0.4,0,0.6,0v0.5h4.8
	c0.5,0.2,1.1,0.3,1.7,0.3h5c0.5,0.1,1,0.2,1.5,0.2h5.9c0.5,0,0.9-0.1,1.4-0.2h5.1c1.1,0,2.2-0.3,3.1-0.9h1.2
	c0.8,0.4,1.8,0.7,2.8,0.7h5.9c0.3,0,0.6,0,0.8-0.1h5.7v-0.4c0.2,0,0.4,0.1,0.6,0.1v0v0.1v0v0.1h4.5c0.6,0.2,1.3,0.3,2,0.3h5.9
	c0.8,0,1.6-0.2,2.3-0.5h4.2c0.2,0,0.4,0,0.6,0v0.3h5.3c0.4,0.1,0.8,0.1,1.2,0.1h5.9c0.1,0,0.2,0,0.3,0c0.1,0,0.2,0,0.3,0h5.9
	c0.3,0,0.7,0,1-0.1h5.5v-0.1c0.2,0,0.4,0,0.6,0h5.9c0.6,0,1.2-0.1,1.8-0.3h3.6c0.5,0.2,1.1,0.3,1.7,0.3v0.2v0v0.4h5.9v-0.4v0v-0.2
	c0.7,0,1.4-0.1,2-0.3h4.5c0.4,0,0.7,0,1.1-0.1h5.4V431c0.2,0,0.4,0,0.6,0v0h3.7c0.8,0.4,1.8,0.7,2.8,0.7h5.9c0.5,0,1-0.1,1.4-0.2
	h5.1v-0.4c0.2,0,0.4,0,0.6,0v0.2v0v0.3h5.9v-0.1c0.2,0,0.4,0,0.6,0h5.9c0.2,0,0.4,0,0.6-0.1v0.1v0h5.9v0v-0.1c0.4,0,0.8,0,1.1-0.1
	h4.1c0.6,0.2,1.2,0.3,1.9,0.3v0.3h5.9v-0.2c0.2,0,0.4,0,0.6,0h5.9c0.4,0,0.7,0,1.1-0.1h5.4v-0.3V431v0c0.2,0,0.4,0,0.6,0v0.6h4.2
	c0.7,0.3,1.5,0.4,2.3,0.4h5.9c0.9,0,1.7-0.2,2.5-0.5h2.4c0.7,0.3,1.4,0.4,2.2,0.4h5.9c1.3,0,2.4-0.4,3.4-1.1h0.2
	c1,0.7,2.1,1.1,3.4,1.1h5.9c1.1,0,2.1-0.3,2.9-0.8h3.2c0.3,0,0.6,0.1,0.9,0.1v0h4.1c0.7,0.3,1.5,0.5,2.3,0.5h5.9
	c0.3,0,0.6,0,0.8-0.1h5.7v0c0.2,0,0.4,0,0.6,0h5.9c0.5,0,1-0.1,1.5-0.2h4.8c0.2,0,0.5,0.1,0.7,0.1v0.2h5.9v-0.2c0.2,0,0.3,0,0.5,0
	c0,0,6,0,6,0c0.8,0,1.5-0.1,2.2-0.4h2.3c0.8,0.4,1.6,0.6,2.6,0.6h5.9c0.8,0,1.5-0.2,2.2-0.4h4.3v0c0.2,0,0.4,0,0.6,0h5.9
	c0.2,0,0.4,0,0.6,0v0.6h5.9v-0.6c0.4,0,0.8,0,1.1-0.1h4.2c0.5,0.2,1.1,0.2,1.7,0.2v0v0.3v0.3h5.9v-0.3v-0.3v0c0.2,0,0.4,0,0.6,0v0.3
	h5.9v-0.4c0.2,0,0.4,0,0.6,0v0.5v0.1h5.9v-0.1v-0.5c3.3,0,6-2.7,6-6c0,0,0-0.2,0-0.3c0-0.1,0-0.2,0-0.3l0,0V424l0-0.8L1704.6,423z"
	/>
</svg>
